<?xml version="1.0" encoding="utf-8"?>
<svg width="243.434" height="200.703" viewBox="0 0 243.434 200.703" fill="none" xmlns="http://www.w3.org/2000/svg">
  <g>
    <g>
      <path d="M0 0L58.5551 0L43.8041 15.4243L58.5551 30.836L29.2776 30.836L29.2776 5.43283L1.14719 1.04909L1.14719 30.836L0 30.836L0 0L0 0Z" fill="#BEFFBE" fill-rule="evenodd" transform="translate(184.879 76.571)" />
      <path d="M58.5551 0L0 0L14.751 15.4243L0 30.836L29.4147 30.836L29.4147 5.72009L57.4079 1.04909L57.4079 30.836L58.5551 30.836L58.5551 0L58.5551 0Z" fill="#BEFFBE" fill-rule="evenodd" transform="translate(0 76.571)" />
      <path d="M139.455 0.00263596L139.455 120.259C139.455 123.406 137.672 126.379 134.704 128.227L69.7274 168.43L4.75074 128.227C1.77062 126.379 0 123.406 0 120.259L0 0C23.1178 5.08313 46.5722 7.65592 69.7274 7.65592C92.8786 7.65592 116.329 5.08402 139.455 0.00263596L139.455 0.00263596ZM139.457 0L139.457 1L140.457 0L139.457 0L139.457 0Z" fill="#6FB584" fill-rule="evenodd" transform="translate(51.996 14.612)" />
      <path d="M146.737 2.04824C146.737 0.786825 145.502 0 144.355 0C144.143 0 143.919 0.0249786 143.694 0.0749369C120.377 5.32043 96.723 7.96815 73.3683 7.96815C50.0137 7.96815 26.3597 5.30794 3.04247 0.0749369C2.81802 0.0249786 2.59358 0 2.3816 0C1.23445 0 0 0.786825 0 2.04824L0 123.681C0 127.828 2.3442 131.749 6.2595 134.172L73.3683 175.699L140.477 134.172C144.392 131.749 146.737 127.828 146.737 123.681L146.737 2.04824L146.737 2.04824ZM143.107 123.681C143.107 126.828 141.324 129.801 138.356 131.649L73.3797 171.865L8.40308 131.649C5.42295 129.813 3.65234 126.828 3.65234 123.681L3.65234 3.42212C26.7826 8.50525 50.237 11.0906 73.3922 11.0906C96.5474 11.0906 120.002 8.51773 143.132 3.42212L143.132 123.681L143.107 123.681L143.107 123.681Z" fill="#FFFFFF" fill-rule="evenodd" transform="translate(48.344 11.19)" />
      <path d="M157.423 0C156.114 0 154.779 0.137383 153.433 0.437123C131.101 5.45781 108.781 7.96815 86.4361 7.96815C64.0914 7.96815 41.7591 5.45781 19.4394 0.437123C18.1052 0.137378 16.771 0 15.4617 0C7.16975 0 0 5.73258 0 13.2386L0 134.872C0 142.628 4.35173 149.896 11.6711 154.442L86.4361 200.703L161.201 154.442C168.533 149.896 172.872 142.627 172.872 134.872L172.872 13.2386C172.872 5.72009 165.702 0 157.423 0L157.423 0ZM159.803 134.872C159.803 139.006 157.459 142.927 153.544 145.363L86.4348 186.889L19.3384 145.363C15.4106 142.94 13.0664 139.018 13.0664 134.872L13.0664 13.2386C13.0664 11.9772 14.3133 11.1904 15.4605 11.1904C15.6725 11.1904 15.8969 11.2154 16.1214 11.2653C39.4262 16.4983 63.0926 19.1586 86.4348 19.1586C109.777 19.1586 133.444 16.4983 156.748 11.2653C156.973 11.2154 157.21 11.1904 157.422 11.1904C158.569 11.1904 159.803 11.9772 159.803 13.2386L159.803 134.872L159.803 134.872Z" fill="#6FB584" fill-rule="evenodd" transform="translate(35.289 0)" />
      <g transform="translate(29.961 89.186)">
        <path d="M172.872 0L172.872 34.358C168.72 36.7809 164.356 39.004 159.804 41.0398C138.657 50.5691 113.469 56.1018 86.4485 56.1018C59.4279 56.1018 34.2278 50.5691 13.0677 41.0398C8.51642 39.004 4.15222 36.7685 0 34.358L0 0C4.16469 2.41043 8.51642 4.63352 13.0677 6.68176C34.2278 16.2111 59.403 21.7438 86.4485 21.7438C113.494 21.7438 138.657 16.2111 159.804 6.68176C164.356 4.63352 168.72 2.39794 172.872 0L172.872 0Z" fill="#000000" fill-rule="evenodd" transform="translate(5.324 3.46)" />
        <path d="M1 1C0.67442 0.800007 0.32558 0.599996 0 0.400002L0 0C0.32558 0.333339 0.67442 0.666677 1 1L1 1Z" fill="#000000" fill-rule="evenodd" />
        <path d="M1 0L1 0.400002C0.674408 0.599996 0.325592 0.800007 0 1C0.325592 0.644434 0.674408 0.311111 1 0L1 0Z" fill="#000000" fill-rule="evenodd" transform="translate(182.973 0)" />
      </g>
      <path d="M183.508 0L183.508 34.3705C159.343 49.8697 127.135 59.3365 91.7603 59.3365C56.3854 59.3365 24.1652 49.8697 0 34.3705L0 1.52588e-05C0.174566 0.112419 0.349134 0.224823 0.523701 0.337227C24.6265 15.6366 56.6223 24.9786 91.7479 24.9786C126.873 24.9786 158.869 15.6491 182.972 0.337234C183.147 0.224838 183.321 0.112427 183.496 3.05176e-05L183.508 0L183.508 0Z" fill="#BEFFBE" fill-rule="evenodd" transform="translate(29.961 82.879)" />
      <path d="M1 1C0.666666 0.804352 0.333334 0.608696 0 0.413048L0 0C0.333334 0.326088 0.666666 0.652184 1 1L1 1Z" fill="#BEFFBE" fill-rule="evenodd" transform="translate(29.961 82.642)" />
      <path d="M1 0L1 0.413048C0.666672 0.608696 0.333328 0.804352 0 1C0.333328 0.673912 0.666672 0.347816 1 0L1 0Z" fill="#BEFFBE" fill-rule="evenodd" transform="translate(212.949 82.642)" />
    </g>
    <path d="M1.94 17.84Q3.86 16.24 5 15.17Q6.14 14.1 6.9 12.94Q7.66 11.78 7.66 10.66Q7.66 9.64 7.18 9.06Q6.7 8.48 5.7 8.48Q4.7 8.48 4.16 9.15Q3.62 9.82 3.6 10.98L0.88 10.98Q0.96 8.58 2.31 7.34Q3.66 6.1 5.74 6.1Q8.02 6.1 9.24 7.31Q10.46 8.52 10.46 10.5Q10.46 12.06 9.62 13.48Q8.78 14.9 7.7 15.95Q6.62 17 4.88 18.48L10.78 18.48L10.78 20.8L0.9 20.8L0.9 18.72L1.94 17.84ZM12.54 13.52Q12.54 10.06 13.79 8.1Q15.04 6.14 17.94 6.14Q20.84 6.14 22.09 8.1Q23.34 10.06 23.34 13.52Q23.34 17 22.09 18.98C21.2567 20.3 19.8733 20.96 17.94 20.96C16.0067 20.96 14.6233 20.3 13.79 18.98Q12.54 17 12.54 13.52ZM20.58 13.52Q20.58 12.04 20.39 11.03Q20.2 10.02 19.63 9.38Q19.06 8.74 17.94 8.74Q16.82 8.74 16.25 9.38Q15.68 10.02 15.49 11.03Q15.3 12.04 15.3 13.52Q15.3 15.04 15.48 16.07Q15.66 17.1 16.24 17.73Q16.82 18.36 17.94 18.36Q19.06 18.36 19.64 17.73Q20.22 17.1 20.4 16.07Q20.58 15.04 20.58 13.52ZM26.34 17.84Q28.26 16.24 29.4 15.17Q30.54 14.1 31.3 12.94Q32.06 11.78 32.06 10.66Q32.06 9.64 31.58 9.06Q31.1 8.48 30.1 8.48Q29.1 8.48 28.56 9.15Q28.02 9.82 28 10.98L25.28 10.98Q25.36 8.58 26.71 7.34Q28.06 6.1 30.14 6.1Q32.42 6.1 33.64 7.31Q34.86 8.52 34.86 10.5Q34.86 12.06 34.02 13.48Q33.18 14.9 32.1 15.95Q31.02 17 29.28 18.48L35.18 18.48L35.18 20.8L25.3 20.8L25.3 18.72L26.34 17.84ZM36.98 10.26Q37.08 8.26 38.39 7.17Q39.7 6.08 41.84 6.08Q43.3 6.08 44.34 6.59Q45.38 7.1 45.91 7.97Q46.44 8.84 46.44 9.94Q46.44 11.2 45.79 12.07Q45.14 12.94 44.24 13.24L44.24 13.32Q45.4 13.68 46.05 14.6Q46.7 15.52 46.7 16.96Q46.7 18.16 46.15 19.1Q45.6 20.04 44.53 20.57Q43.46 21.1 41.96 21.1Q39.7 21.1 38.28 19.96Q36.86 18.82 36.78 16.6L39.5 16.6Q39.54 17.58 40.17 18.17Q40.8 18.76 41.9 18.76Q42.92 18.76 43.47 18.19Q44.02 17.62 44.02 16.72Q44.02 15.52 43.26 15Q42.5 14.48 40.9 14.48L40.32 14.48L40.32 12.18L40.9 12.18Q43.74 12.18 43.74 10.28Q43.74 9.42 43.23 8.94Q42.72 8.46 41.76 8.46Q40.82 8.46 40.31 8.97Q39.8 9.48 39.72 10.26L36.98 10.26Z" transform="translate(97.719 113.832)" fill="#418254" />
    <g transform="translate(79.719 44.832)">
      <path d="M6.288 16.912Q4.72 16.912 3.408 16.176Q2.096 15.44 1.328 14.136Q0.56 12.832 0.56 11.184Q0.56 9.552 1.328 8.248Q2.096 6.944 3.408 6.208Q4.72 5.472 6.288 5.472Q7.872 5.472 9.176 6.208Q10.48 6.944 11.24 8.248Q12 9.552 12 11.184Q12 12.832 11.24 14.136Q10.48 15.44 9.168 16.176Q7.856 16.912 6.288 16.912ZM6.288 14.912Q7.296 14.912 8.064 14.456Q8.832 14 9.264 13.152Q9.696 12.304 9.696 11.184Q9.696 10.064 9.264 9.224Q8.832 8.384 8.064 7.936Q7.296 7.488 6.288 7.488Q5.28 7.488 4.504 7.936Q3.728 8.384 3.296 9.224Q2.864 10.064 2.864 11.184Q2.864 12.304 3.296 13.152Q3.728 14 4.504 14.456Q5.28 14.912 6.288 14.912ZM22.032 7.936L22.032 16.8L19.776 16.8L19.776 15.68Q19.344 16.256 18.648 16.584Q17.952 16.912 17.136 16.912Q16.096 16.912 15.296 16.472Q14.496 16.032 14.04 15.176Q13.584 14.32 13.584 13.136L13.584 7.936L15.824 7.936L15.824 12.816Q15.824 13.872 16.352 14.44Q16.88 15.008 17.792 15.008Q18.72 15.008 19.248 14.44Q19.776 13.872 19.776 12.816L19.776 7.936L22.032 7.936ZM26.848 9.776L26.848 14.064Q26.848 14.512 27.064 14.712Q27.28 14.912 27.792 14.912L28.832 14.912L28.832 16.8L27.424 16.8Q24.592 16.8 24.592 14.048L24.592 9.776L23.536 9.776L23.536 7.936L24.592 7.936L24.592 5.744L26.848 5.744L26.848 7.936L28.832 7.936L28.832 9.776L26.848 9.776ZM32.688 4.96L32.688 16.8L30.448 16.8L30.448 4.96L32.688 4.96ZM38.832 16.944Q37.552 16.944 36.528 16.376Q35.504 15.808 34.92 14.768Q34.336 13.728 34.336 12.368Q34.336 11.008 34.936 9.968Q35.536 8.928 36.576 8.36Q37.616 7.792 38.896 7.792Q40.176 7.792 41.216 8.36Q42.256 8.928 42.856 9.968Q43.456 11.008 43.456 12.368Q43.456 13.728 42.84 14.768Q42.224 15.808 41.176 16.376Q40.128 16.944 38.832 16.944ZM38.832 14.992Q39.44 14.992 39.976 14.696Q40.512 14.4 40.832 13.808Q41.152 13.216 41.152 12.368Q41.152 11.104 40.488 10.424Q39.824 9.744 38.864 9.744Q37.904 9.744 37.256 10.424Q36.608 11.104 36.608 12.368Q36.608 13.632 37.24 14.312Q37.872 14.992 38.832 14.992ZM49.04 16.944Q47.76 16.944 46.736 16.376Q45.712 15.808 45.128 14.768Q44.544 13.728 44.544 12.368Q44.544 11.008 45.144 9.968Q45.744 8.928 46.784 8.36Q47.824 7.792 49.104 7.792Q50.384 7.792 51.424 8.36Q52.464 8.928 53.064 9.968Q53.664 11.008 53.664 12.368Q53.664 13.728 53.048 14.768Q52.432 15.808 51.384 16.376Q50.336 16.944 49.04 16.944ZM49.04 14.992Q49.648 14.992 50.184 14.696Q50.72 14.4 51.04 13.808Q51.36 13.216 51.36 12.368Q51.36 11.104 50.696 10.424Q50.032 9.744 49.072 9.744Q48.112 9.744 47.464 10.424Q46.816 11.104 46.816 12.368Q46.816 13.632 47.448 14.312Q48.08 14.992 49.04 14.992ZM60.56 16.8L57.552 13.024L57.552 16.8L55.312 16.8L55.312 4.96L57.552 4.96L57.552 11.696L60.528 7.936L63.44 7.936L59.536 12.384L63.472 16.8L60.56 16.8ZM71.472 10.144L71.472 12.032L64.688 12.032L64.688 10.144L71.472 10.144ZM80.32 11.072Q81.264 11.248 81.872 12.016Q82.48 12.784 82.48 13.776Q82.48 14.672 82.04 15.352Q81.6 16.032 80.768 16.416C80.2133 16.672 79.5573 16.8 78.8 16.8L73.984 16.8L73.984 5.632L78.592 5.632Q79.728 5.632 80.552 6Q81.376 6.368 81.8 7.024Q82.224 7.68 82.224 8.512Q82.224 9.488 81.704 10.144Q81.184 10.8 80.32 11.072ZM76.224 10.24L78.272 10.24Q79.072 10.24 79.504 9.88Q79.936 9.52 79.936 8.848Q79.936 8.176 79.504 7.808Q79.072 7.44 78.272 7.44L76.224 7.44L76.224 10.24ZM78.48 14.976Q79.296 14.976 79.752 14.592Q80.208 14.208 80.208 13.504Q80.208 12.784 79.728 12.376Q79.248 11.968 78.432 11.968L76.224 11.968L76.224 14.976L78.48 14.976Z" transform="translate(0 -1)" fill="#FFFFFF" />
      <path d="M7.952 14.672L3.504 14.672L2.768 16.8L0.416 16.8L4.432 5.616L7.04 5.616L11.056 16.8L8.688 16.8L7.952 14.672ZM7.344 12.88L5.728 8.208L4.112 12.88L7.344 12.88ZM24.848 7.936L22.256 16.8L19.84 16.8L18.224 10.608L16.608 16.8L14.176 16.8L11.568 7.936L13.84 7.936L15.408 14.688L17.104 7.936L19.472 7.936L21.136 14.672L22.704 7.936L24.848 7.936ZM25.488 12.336Q25.488 10.992 26.024 9.952Q26.56 8.912 27.48 8.352Q28.4 7.792 29.536 7.792Q30.528 7.792 31.272 8.192Q32.016 8.592 32.464 9.2L32.464 7.936L34.72 7.936L34.72 16.8L32.464 16.8L32.464 15.504Q32.032 16.128 31.272 16.536Q30.512 16.944 29.52 16.944Q28.4 16.944 27.48 16.368Q26.56 15.792 26.024 14.744Q25.488 13.696 25.488 12.336ZM32.464 12.368Q32.464 11.552 32.144 10.968Q31.824 10.384 31.28 10.072Q30.736 9.76 30.112 9.76Q29.488 9.76 28.96 10.064Q28.432 10.368 28.104 10.952Q27.776 11.536 27.776 12.336Q27.776 13.136 28.104 13.736Q28.432 14.336 28.968 14.656Q29.504 14.976 30.112 14.976Q30.736 14.976 31.28 14.664Q31.824 14.352 32.144 13.768Q32.464 13.184 32.464 12.368ZM39.152 9.312Q39.584 8.608 40.28 8.208Q40.976 7.808 41.872 7.808L41.872 10.16L41.28 10.16Q40.224 10.16 39.688 10.656Q39.152 11.152 39.152 12.384L39.152 16.8L36.912 16.8L36.912 7.936L39.152 7.936L39.152 9.312ZM42.8 12.336Q42.8 10.992 43.336 9.952Q43.872 8.912 44.8 8.352Q45.728 7.792 46.864 7.792Q47.728 7.792 48.512 8.168Q49.296 8.544 49.76 9.168L49.76 4.96L52.032 4.96L52.032 16.8L49.76 16.8L49.76 15.488Q49.344 16.144 48.592 16.544Q47.84 16.944 46.848 16.944Q45.728 16.944 44.8 16.368Q43.872 15.792 43.336 14.744Q42.8 13.696 42.8 12.336ZM49.776 12.368Q49.776 11.552 49.456 10.968Q49.136 10.384 48.592 10.072Q48.048 9.76 47.424 9.76Q46.8 9.76 46.272 10.064Q45.744 10.368 45.416 10.952Q45.088 11.536 45.088 12.336Q45.088 13.136 45.416 13.736Q45.744 14.336 46.28 14.656Q46.816 14.976 47.424 14.976Q48.048 14.976 48.592 14.664Q49.136 14.352 49.456 13.768Q49.776 13.184 49.776 12.368Z" transform="translate(15.024 21)" fill="#FFFFFF" />
    </g>
  </g>
</svg>