<svg width="19" height="19" viewBox="0 0 19 19" fill="none" xmlns="http://www.w3.org/2000/svg">
<path fill-rule="evenodd" clip-rule="evenodd" d="M17.5437 4.6171H16.9207V4.21318C17.3876 3.90338 17.6962 3.37252 17.6962 2.77063V1.09657C17.6962 0.526206 17.2331 0.062157 16.6638 0.062157H15.2769C14.7075 0.062157 14.2445 0.526206 14.2445 1.09657V2.77063C14.2445 3.35756 14.5379 3.87665 14.9852 4.18936V4.6171H12.7207V1.17863C12.7207 0.562952 12.2207 0.0620117 11.6062 0.0620117H2.89091C2.7374 0.0620117 2.61302 0.186775 2.61302 0.340586C2.61302 0.494398 2.7374 0.619015 2.89091 0.619015H11.6062C11.9141 0.619015 12.1648 0.870139 12.1648 1.17863V4.6171H9.64539C9.71947 4.49684 9.7631 4.35581 9.7631 4.20446C9.7631 4.05879 9.7228 3.92284 9.65395 3.80563L10.65 2.56802C10.7288 2.5946 10.8127 2.60956 10.9004 2.60956C11.3344 2.60956 11.6876 2.25575 11.6876 1.82089C11.6876 1.38589 11.3344 1.03208 10.9004 1.03208C10.4663 1.03208 10.1132 1.38589 10.1132 1.82089C10.1132 1.96468 10.1523 2.09903 10.2197 2.21537L9.22153 3.45545C9.14413 3.42989 9.06165 3.41565 8.97583 3.41565C8.86784 3.41565 8.76477 3.43759 8.67098 3.47724L8.14029 2.91558C8.19073 2.81159 8.21987 2.6954 8.21987 2.57223C8.21987 2.13723 7.86661 1.78342 7.4326 1.78342C6.9986 1.78342 6.64533 2.13723 6.64533 2.57223C6.64533 2.71602 6.68462 2.85052 6.75202 2.96671L6.1013 3.76569C6.02259 3.73911 5.93866 3.72415 5.85125 3.72415C5.65367 3.72415 5.47334 3.79793 5.33491 3.91892L4.60374 3.52546C4.60809 3.49147 4.61127 3.45719 4.61127 3.42204C4.61127 2.98704 4.25801 2.63323 3.82401 2.63323C3.39 2.63323 3.03674 2.98704 3.03674 3.42204C3.03674 3.52836 3.05819 3.6296 3.09631 3.72226L2.30556 4.46343C2.20061 4.41143 2.08291 4.38137 1.9581 4.38137C1.52395 4.38137 1.17083 4.73518 1.17083 5.17018C1.17083 5.60503 1.52395 5.95884 1.9581 5.95884C2.39211 5.95884 2.74522 5.60503 2.74522 5.17018C2.74522 5.06386 2.72392 4.96263 2.68565 4.86996L3.47654 4.12865C3.58149 4.18079 3.6992 4.21071 3.82401 4.21071C4.02158 4.21071 4.20191 4.13693 4.34035 4.01608L5.07152 4.40955C5.06702 4.44339 5.06398 4.47781 5.06398 4.51296C5.06398 4.94781 5.4171 5.30177 5.85125 5.30177C6.28526 5.30177 6.63837 4.94781 6.63837 4.51296C6.63837 4.36902 6.59909 4.23453 6.53168 4.11819L7.18226 3.31936C7.26097 3.34594 7.34505 3.36104 7.43246 3.36104C7.54045 3.36104 7.64352 3.33897 7.7373 3.29946L8.26814 3.86126C8.2177 3.96511 8.18856 4.0813 8.18856 4.20446C8.18856 4.51833 8.37295 4.78921 8.63837 4.91615V5.60794C8.63837 6.14345 9.07339 6.57903 9.60799 6.57903H13.8633V10.325C13.3118 10.5189 12.9271 11.0496 12.9271 11.6471V13.1284C12.9271 13.7527 13.2346 14.3225 13.7395 14.6542V15.1268H13.5316C12.8229 15.1268 12.2016 15.5081 11.8605 16.0766C11.5196 15.5081 10.8983 15.1268 10.1896 15.1268H9.9817V14.6523C10.4866 14.3136 10.794 13.7443 10.794 13.1286V11.6471C10.794 11.3305 10.6885 11.0383 10.5111 10.8034H11.6061C12.2207 10.8034 12.7205 10.3025 12.7205 9.68678V7.69725C12.7205 7.54344 12.5962 7.41882 12.4427 7.41882C12.2891 7.41882 12.1646 7.54344 12.1646 7.69725V9.68678C12.1646 9.99527 11.9141 10.2464 11.6061 10.2464H9.39722H9.39577H8.53327H8.53182H3.60642H3.60497H2.74232H2.74088H1.11444C0.806549 10.2464 0.555916 9.99527 0.555916 9.68678V1.17863C0.555916 0.870139 0.806549 0.619015 1.11444 0.619015H1.70457C1.85808 0.619015 1.9826 0.494398 1.9826 0.340586C1.9826 0.186775 1.85808 0.0620117 1.70457 0.0620117H1.11444C0.499962 0.0620117 0 0.562952 0 1.17863V9.68663C0 10.3025 0.499962 10.8034 1.11444 10.8034H1.62716C1.44973 11.0383 1.3442 11.3306 1.3442 11.6473V11.9668L1.34435 11.9725V13.1284C1.34435 13.7441 1.6518 14.3136 2.15669 14.6523V15.1267H1.94882C0.874245 15.1267 0 16.0026 0 17.0793V18.1399C0 18.519 0.307892 18.8273 0.686378 18.8273H5.66077C5.81385 18.8273 5.9549 18.7763 6.06912 18.6912C6.18335 18.7763 6.32439 18.8273 6.47733 18.8273H11.452C11.6052 18.8273 11.7463 18.7762 11.8606 18.6908C11.9749 18.7762 12.1161 18.8273 12.2691 18.8273H17.244C17.6222 18.8273 17.9299 18.519 17.9299 18.1399V17.0793C17.9299 16.6567 17.7922 16.2449 17.5404 15.9084V12.9113C17.5404 12.7575 17.416 12.6329 17.2624 12.6329C17.1089 12.6329 16.9845 12.7575 16.9845 12.9113V15.4051C16.6852 15.2249 16.3397 15.1267 15.9815 15.1267H15.7737V14.6516L15.7848 14.6443L15.7848 14.6442C15.7932 14.6388 15.8015 14.6333 15.8096 14.6276C16.2958 14.2841 16.586 13.7236 16.586 13.1284V11.9682V11.9668V11.6471C16.586 11.328 16.4787 11.0336 16.2987 10.7977H16.9845V11.6115C16.9845 11.7653 17.1089 11.8901 17.2625 11.8901C17.416 11.8901 17.5404 11.7655 17.5404 11.6115V10.7977H17.5782C18.3622 10.7977 19 10.1587 19 9.3732V6.0762C19 5.2717 18.3468 4.6171 17.5437 4.6171ZM14.8008 1.09655C14.8008 0.833228 15.0146 0.619141 15.2773 0.619141H16.6644C16.927 0.619141 17.1408 0.833373 17.1408 1.09655V1.53402C16.9982 1.45937 16.836 1.4171 16.6644 1.4171H15.8314V1.39604C15.8314 1.24223 15.7071 1.11761 15.5534 1.11761C15.3999 1.11761 15.2755 1.24223 15.2755 1.39604V1.4171C15.1045 1.41739 14.943 1.45966 14.8008 1.53402V1.09655ZM15.2773 1.97412C15.0146 1.97412 14.8008 2.18835 14.8008 2.45153V2.77063C14.8008 3.4171 15.3257 3.94302 15.9707 3.94302C16.616 3.94302 17.1408 3.4171 17.1408 2.77063V2.45153C17.1408 2.18835 16.927 1.97412 16.6644 1.97412H15.2773ZM15.9701 4.49949C16.1058 4.49949 16.2377 4.48322 16.3645 4.4533V4.88089L16.3642 4.89121C16.361 5.11517 16.1765 5.2973 15.9527 5.2973C15.7289 5.2973 15.5443 5.11517 15.5413 4.89135L15.541 4.88089V4.44531C15.6781 4.48061 15.8219 4.49949 15.9701 4.49949ZM11.1305 1.82116C11.1305 1.69335 11.0267 1.58936 10.8992 1.58936C10.7718 1.58936 10.668 1.69335 10.668 1.82116C10.668 1.89175 10.6997 1.95493 10.7496 1.99749L10.7506 1.99821L10.7525 1.99987L10.7536 2.00097C10.7935 2.03336 10.8441 2.05282 10.8992 2.05282C11.0267 2.05282 11.1305 1.94898 11.1305 1.82116ZM9.12052 4.02262L9.12226 4.02436C9.12313 4.02509 9.124 4.02538 9.12487 4.02611C9.17604 4.06866 9.20866 4.13271 9.20866 4.20446C9.20866 4.33228 9.10487 4.43612 8.9773 4.43612C8.84988 4.43612 8.74609 4.33228 8.74609 4.20446C8.74609 4.07665 8.84988 3.97266 8.9773 3.97266C9.03137 3.97266 9.08109 3.99154 9.12052 4.02262ZM1.72656 5.17014C1.72656 5.29795 1.83035 5.40194 1.95777 5.40194C2.08534 5.40194 2.18913 5.29795 2.18913 5.17014C2.18913 5.04232 2.08534 4.93848 1.95777 4.93848C1.83021 4.93848 1.72656 5.04232 1.72656 5.17014ZM3.8251 3.65341C3.69754 3.65341 3.59375 3.54942 3.59375 3.4216C3.59375 3.29393 3.69754 3.18994 3.8251 3.18994C3.95252 3.18994 4.05631 3.29393 4.05631 3.4216C4.05631 3.54942 3.95252 3.65341 3.8251 3.65341ZM5.61914 4.51291C5.61914 4.64072 5.72293 4.74472 5.85049 4.74472C5.97791 4.74472 6.0817 4.64072 6.0817 4.51291C6.0817 4.38524 5.97791 4.28125 5.85049 4.28125C5.72293 4.28125 5.61914 4.38524 5.61914 4.51291ZM7.20117 2.57248C7.20117 2.44467 7.30496 2.34082 7.43253 2.34082C7.56009 2.34082 7.66373 2.44467 7.66373 2.57248C7.66373 2.70029 7.56009 2.80429 7.43253 2.80429C7.30496 2.80429 7.20117 2.70029 7.20117 2.57248ZM14.1473 10.8221C13.7616 10.9049 13.4824 11.2517 13.4824 11.6469V11.9668C13.4824 12.6703 14.0537 13.2427 14.756 13.2427C15.4578 13.2427 16.0286 12.671 16.0295 11.9682V11.6469C16.0295 11.1817 15.6516 10.8032 15.187 10.8032H14.3245C14.264 10.8032 14.2045 10.8096 14.1473 10.8221ZM7.74028 15.1266C7.03201 15.1266 6.41101 15.5075 6.06978 16.0755C5.72869 15.5075 5.1074 15.1266 4.39899 15.1266H4.19141V14.6521C4.69644 14.3134 5.0039 13.7441 5.0039 13.1284V11.6469C5.0039 11.3305 4.89837 11.0381 4.72094 10.8032H7.41876C7.3241 10.9286 7.24989 11.0702 7.20133 11.2233C7.15885 11.357 7.1358 11.4994 7.1358 11.6471V11.9668V11.9682V13.1284C7.1358 13.7441 7.44326 14.3136 7.9483 14.6523V15.1266H7.74028ZM2.71178 14.492L2.71192 14.4968V15.4052C2.71192 15.4888 2.77991 15.5571 2.86355 15.5571H3.48252C3.56602 15.5571 3.634 15.4888 3.634 15.4052V14.4968C3.63371 14.3976 3.68633 14.3016 3.7794 14.2509C4.14266 14.0531 4.38416 13.6946 4.43577 13.291C4.10715 13.6058 3.66241 13.7998 3.17289 13.7998C2.68351 13.7998 2.23878 13.6059 1.91016 13.2913C1.96191 13.6948 2.20341 14.0532 2.56667 14.2509C2.65046 14.2965 2.70134 14.379 2.71047 14.4675C2.7112 14.4744 2.71163 14.4826 2.71178 14.492ZM1.90039 11.6469C1.90039 11.1817 2.27815 10.8032 2.74245 10.8032H3.60496C3.75948 10.8032 3.9043 10.8453 4.02896 10.9183C4.27887 11.0648 4.44731 11.3366 4.44731 11.6471V11.9668C4.44731 12.6703 3.87603 13.2427 3.17385 13.2427C2.47356 13.2427 1.90358 12.6734 1.90054 11.9724V11.6469H1.90039ZM7.72924 11.3967C7.7046 11.4759 7.69141 11.5601 7.69141 11.6473V11.9686C7.69213 12.6715 8.26312 13.2431 8.96487 13.2431C9.66705 13.2431 10.2383 12.6707 10.2383 11.9671V11.6476C10.2383 11.255 9.96943 10.924 9.60631 10.8303L9.59241 10.827L9.59234 10.827L9.58601 10.8255C9.57935 10.8239 9.57253 10.8223 9.56572 10.8208C9.51093 10.8095 9.45439 10.8037 9.39626 10.8037H8.53347C8.44635 10.8037 8.36242 10.8169 8.28327 10.8416C8.27776 10.8434 8.27238 10.8452 8.26699 10.8471L8.25892 10.8499L8.24965 10.853L8.24428 10.8548C8.0122 10.9402 7.82767 11.1251 7.74258 11.3577C7.74147 11.3605 7.74051 11.3634 7.73955 11.3662L7.7375 11.3722L7.735 11.3795C7.73304 11.3852 7.73107 11.3909 7.72924 11.3967ZM8.50489 14.4967V14.4946C8.50489 14.4749 8.50373 14.4615 8.50141 14.4531C8.48851 14.3702 8.43893 14.2939 8.35964 14.2508C7.99638 14.0531 7.75488 13.6946 7.70312 13.291C8.03175 13.6058 8.47662 13.7997 8.966 13.7997C9.45538 13.7997 9.90012 13.6058 10.2287 13.291C10.1771 13.6946 9.93563 14.0531 9.57236 14.2508C9.48713 14.2971 9.43596 14.3816 9.42813 14.4715C9.42741 14.4779 9.42712 14.4855 9.42697 14.4943V14.4967V15.405C9.42697 15.4888 9.35899 15.5569 9.27534 15.5569H8.65637C8.57288 15.5569 8.50489 15.4888 8.50489 15.405V14.4967ZM4.80407 18.2706H5.6615C5.7334 18.2706 5.79196 18.212 5.79196 18.1403V17.0797C5.79196 16.3101 5.16705 15.6841 4.39906 15.6841H4.13451C4.02622 15.9369 3.77544 16.1144 3.48393 16.1144H2.86496C2.57345 16.1144 2.32281 15.9368 2.21453 15.6841H1.94955C1.18156 15.6841 0.556641 16.3101 0.556641 17.0797V18.1403C0.556641 18.2122 0.615204 18.2706 0.687103 18.2706H1.56483V17.6531C1.56483 17.4993 1.6892 17.3747 1.84271 17.3747C1.99637 17.3747 2.12074 17.4993 2.12074 17.6531V18.2706H4.24815V17.6531C4.24815 17.4993 4.37253 17.3747 4.52604 17.3747C4.6797 17.3747 4.80407 17.4993 4.80407 17.6531V18.2706ZM11.5825 18.1401C11.5825 18.212 11.5243 18.2706 11.4525 18.2706H10.5948V17.6531C10.5948 17.4993 10.4704 17.3746 10.3168 17.3746C10.1633 17.3746 10.0389 17.4993 10.0389 17.6531V18.2706H7.91147V17.6531C7.91147 17.4993 7.78709 17.3746 7.63344 17.3746C7.47993 17.3746 7.35555 17.4993 7.35555 17.6531V18.2706H6.47783C6.40607 18.2706 6.34766 18.212 6.34766 18.1401V17.0796C6.34766 16.3101 6.97228 15.6841 7.74013 15.6841H8.00511C8.11339 15.9368 8.36417 16.1144 8.65568 16.1144H9.27466C9.56617 16.1144 9.8168 15.9368 9.92509 15.6841H10.1901C10.9579 15.6841 11.5825 16.3101 11.5825 17.0796V18.1401ZM17.3736 17.0792C17.3736 16.7519 17.2583 16.4338 17.049 16.1834C16.7834 15.8657 16.3941 15.6837 15.9811 15.6836H15.7161C15.6078 15.9365 15.357 16.1141 15.0655 16.1141H14.4466C14.1881 16.1141 13.9501 15.9728 13.8258 15.7453C13.815 15.7253 13.8054 15.7045 13.7964 15.6836H13.5311C12.7633 15.6836 12.1387 16.3097 12.1387 17.0792V18.1398C12.1387 18.2117 12.1971 18.2701 12.2687 18.2701H13.1464V17.6528C13.1464 17.499 13.2709 17.3742 13.4245 17.3742C13.578 17.3742 13.7025 17.499 13.7025 17.6528V18.2701H15.8299V17.6528C15.8299 17.499 15.9543 17.3742 16.1078 17.3742C16.2614 17.3742 16.3858 17.499 16.3858 17.6528V18.2701H17.2435C17.3153 18.2701 17.3736 18.2117 17.3736 18.1398V17.0792ZM15.4909 14.1719C15.455 14.1973 15.4172 14.2211 15.3789 14.2427C15.3037 14.2851 15.2486 14.3588 15.228 14.439C15.2219 14.4459 15.2187 14.4605 15.2187 14.4853V15.4053C15.2187 15.4889 15.1507 15.5572 15.0671 15.5572H14.4481C14.3927 15.5572 14.3417 15.5268 14.3153 15.4785C14.3124 15.4731 14.3098 15.4676 14.3076 15.462C14.3114 15.4437 14.3134 15.4247 14.3134 15.4053C14.3134 15.3718 14.3074 15.34 14.2966 15.3104V14.4955V14.4943L14.2964 14.4877L14.2962 14.4841C14.2961 14.4776 14.2956 14.4712 14.295 14.4658C14.2947 14.4629 14.2942 14.4599 14.2937 14.457L14.2933 14.4542L14.2933 14.4541C14.2931 14.4527 14.2929 14.4513 14.2926 14.4501C14.2788 14.3669 14.2281 14.291 14.1479 14.2488C13.7796 14.0551 13.5433 13.7039 13.4941 13.2905C13.8229 13.6057 14.2679 13.7999 14.7577 13.7999C15.2471 13.7999 15.6919 13.606 16.0205 13.2913C15.9751 13.6433 15.7843 13.9646 15.4909 14.1719ZM17.5791 10.2409C18.0565 10.2409 18.445 9.8517 18.445 9.37341V6.07642C18.445 5.57896 18.0411 5.17432 17.5448 5.17432H16.877C16.7534 5.56763 16.3847 5.85507 15.9539 5.85507C15.523 5.85507 15.1543 5.56763 15.0308 5.17432H9.19531V5.60815C9.19531 5.83648 9.38086 6.02224 9.60888 6.02224H14.0348C14.2473 6.02224 14.4202 6.19551 14.4202 6.40844V10.2409H16.9852V6.99362C16.9852 6.83981 17.1096 6.71505 17.2633 6.71505C17.4168 6.71505 17.5412 6.83981 17.5412 6.99362V10.2409H17.5791Z" fill="black"/>
</svg>
