<svg width="25" height="26" viewBox="0 0 25 26" fill="none" xmlns="http://www.w3.org/2000/svg">
<path fill-rule="evenodd" clip-rule="evenodd" d="M0.564453 5.17197C0.564453 4.4186 1.17891 3.8042 1.93223 3.8042H17.298C18.0513 3.8042 18.6658 4.4186 18.6658 5.17197V24.027C18.6658 24.7802 18.0513 25.3947 17.298 25.3947H1.93228C1.17891 25.3947 0.564552 24.7803 0.564503 24.027V5.17197L0.564453 5.17197Z" fill="#685E68"/>
<path fill-rule="evenodd" clip-rule="evenodd" d="M0.564454 5.17197C0.564454 4.4186 1.17886 3.8042 1.93223 3.8042H16.7375C16.7421 3.8042 16.7467 3.80435 16.7514 3.80439V25.3945C16.7468 25.3945 16.7421 25.3947 16.7375 25.3947H1.93223C1.17886 25.3947 0.564453 24.7803 0.564453 24.027L0.564454 5.17197Z" fill="#837683"/>
<path fill-rule="evenodd" clip-rule="evenodd" d="M1.94531 5.18164H17.2828V24.0148H1.94531L1.94531 5.18164Z" fill="white"/>
<path fill-rule="evenodd" clip-rule="evenodd" d="M16.752 5.18164H17.2844V24.0148H16.752V5.18164Z" fill="#ECEFF1"/>
<ellipse cx="9.61477" cy="3.02053" rx="0.497581" ry="0.497581" fill="black"/>
<path fill-rule="evenodd" clip-rule="evenodd" d="M9.61499 1.46875C8.72739 1.46875 8.00786 2.18828 8.00786 3.07588V3.29658L6.41455 3.01807C6.1751 2.97617 5.95215 3.03618 5.76602 3.19258C5.57988 3.34898 5.48242 3.55825 5.48242 3.80132V5.18911C5.48242 5.37734 5.63599 5.53091 5.82422 5.53091H13.4058C13.594 5.53091 13.7476 5.37739 13.7476 5.18911V3.80132C13.7476 3.5582 13.6501 3.34893 13.464 3.19258C13.2778 3.03618 13.0549 2.97617 12.8154 3.01807L11.2221 3.29658V3.07588C11.2221 2.18828 10.5026 1.46875 9.61499 1.46875V1.46875Z" fill="#F29988"/>
<path fill-rule="evenodd" clip-rule="evenodd" d="M8.00781 3.07604V3.29679L6.41455 3.01828C6.17505 2.97638 5.9521 3.03644 5.76602 3.19279C5.57988 3.34919 5.48242 3.55846 5.48242 3.80158V5.18927C5.48242 5.37755 5.63599 5.53107 5.82422 5.53107H13.0261V3.92765C13.0261 3.68449 12.9286 3.47526 12.7425 3.31886C12.5563 3.16247 12.3334 3.10251 12.0939 3.1443L11.2221 3.29669L10.8335 3.36457L10.6296 3.40021C10.6548 1.18117 8.00786 1.48698 8.00786 3.07589L8.00781 3.07604Z" fill="#FDB0A0"/>
<ellipse cx="9.61286" cy="3.00544" rx="0.489814" ry="0.489815" fill="white"/>
<path fill-rule="evenodd" clip-rule="evenodd" d="M4.84375 11.3052V11.1099C4.84375 11.0559 4.86282 11.0099 4.90096 10.9718C4.93909 10.9336 4.98513 10.9146 5.03906 10.9146H6.11431C6.16824 10.9146 6.21428 10.9336 6.25241 10.9718C6.29055 11.0099 6.30962 11.0559 6.30962 11.1099V13.1586C6.30962 13.2126 6.29055 13.2586 6.25241 13.2967C6.21428 13.3349 6.16824 13.354 6.11431 13.354H5.03906C4.98513 13.354 4.93909 13.3349 4.90096 13.2967C4.86282 13.2586 4.84375 13.2126 4.84375 13.1586V11.3052Z" fill="#F23353"/>
<path fill-rule="evenodd" clip-rule="evenodd" d="M7.53711 8.91064V8.71533C7.53711 8.6614 7.55618 8.61536 7.59432 8.57723C7.63245 8.53909 7.67849 8.52002 7.73242 8.52002H8.80767C8.8616 8.52002 8.90764 8.53909 8.94577 8.57723C8.98391 8.61536 9.00298 8.6614 9.00298 8.71533V13.1589C9.00298 13.2129 8.98391 13.2589 8.94577 13.297C8.90764 13.3352 8.8616 13.3542 8.80767 13.3542H7.73242C7.67849 13.3542 7.63245 13.3352 7.59432 13.297C7.55618 13.2589 7.53711 13.2129 7.53711 13.1589V8.91064Z" fill="#FDC72E"/>
<path fill-rule="evenodd" clip-rule="evenodd" d="M10.2285 9.91553V9.72021C10.2285 9.66628 10.2476 9.62025 10.2857 9.58211C10.3239 9.54397 10.3699 9.5249 10.4238 9.5249H11.4991C11.553 9.5249 11.599 9.54397 11.6372 9.58211C11.6753 9.62025 11.6944 9.66628 11.6944 9.72021V13.159C11.6944 13.2129 11.6753 13.259 11.6372 13.2971C11.599 13.3352 11.553 13.3543 11.4991 13.3543H10.4238C10.3699 13.3543 10.3239 13.3352 10.2857 13.2971C10.2476 13.259 10.2285 13.2129 10.2285 13.159V9.91553Z" fill="#2DD62D"/>
<path fill-rule="evenodd" clip-rule="evenodd" d="M12.9199 7.47021V7.2749C12.9199 7.22097 12.939 7.17493 12.9771 7.1368C13.0153 7.09866 13.0613 7.07959 13.1152 7.07959H14.1905C14.2444 7.07959 14.2904 7.09866 14.3286 7.1368C14.3667 7.17493 14.3858 7.22097 14.3858 7.2749V13.1587C14.3858 13.2127 14.3667 13.2587 14.3286 13.2968C14.2904 13.335 14.2444 13.3541 14.1905 13.3541H13.1152C13.0613 13.3541 13.0153 13.335 12.9771 13.2968C12.939 13.2587 12.9199 13.2127 12.9199 13.1587V7.47021Z" fill="#4EB1FC"/>
<path fill-rule="evenodd" clip-rule="evenodd" d="M4.84375 11.3052V11.1099C4.84375 11.0559 4.86282 11.0099 4.90096 10.9718C4.93909 10.9336 4.98513 10.9146 5.03906 10.9146H5.85796C5.91189 10.9146 5.95793 10.9336 5.99607 10.9718C6.0342 11.0099 6.05327 11.0559 6.05327 11.1099V13.1586C6.05327 13.2126 6.0342 13.2586 5.99607 13.2967C5.95793 13.3349 5.91189 13.354 5.85796 13.354H5.03906C4.98513 13.354 4.93909 13.3349 4.90096 13.2967C4.86282 13.2586 4.84375 13.2126 4.84375 13.1586V11.3052Z" fill="#FF5471"/>
<path fill-rule="evenodd" clip-rule="evenodd" d="M7.53711 8.91064V8.71533C7.53711 8.6614 7.55618 8.61536 7.59432 8.57723C7.63245 8.53909 7.67849 8.52002 7.73242 8.52002H8.55132C8.60525 8.52002 8.65129 8.53909 8.68942 8.57723C8.72756 8.61536 8.74663 8.6614 8.74663 8.71533V13.1589C8.74663 13.2129 8.72756 13.2589 8.68942 13.297C8.65129 13.3352 8.60525 13.3542 8.55132 13.3542H7.73242C7.67849 13.3542 7.63245 13.3352 7.59432 13.297C7.55618 13.2589 7.53711 13.2129 7.53711 13.1589V8.91064Z" fill="#FCDB35"/>
<path fill-rule="evenodd" clip-rule="evenodd" d="M10.2285 9.91553V9.72021C10.2285 9.66628 10.2476 9.62025 10.2857 9.58211C10.3239 9.54397 10.3699 9.5249 10.4238 9.5249H11.2427C11.2967 9.5249 11.3427 9.54397 11.3808 9.58211C11.419 9.62025 11.438 9.66628 11.438 9.72021V13.159C11.438 13.2129 11.419 13.259 11.3808 13.2971C11.3427 13.3352 11.2967 13.3543 11.2427 13.3543H10.4238C10.3699 13.3543 10.3239 13.3352 10.2857 13.2971C10.2476 13.259 10.2285 13.2129 10.2285 13.159V9.91553Z" fill="#43F043"/>
<path fill-rule="evenodd" clip-rule="evenodd" d="M12.9199 7.47021V7.2749C12.9199 7.22097 12.939 7.17493 12.9771 7.1368C13.0153 7.09866 13.0613 7.07959 13.1152 7.07959H13.9341C13.9881 7.07959 14.0341 7.09866 14.0722 7.1368C14.1104 7.17493 14.1294 7.22097 14.1294 7.2749V13.1587C14.1294 13.2127 14.1104 13.2587 14.0722 13.2968C14.0341 13.335 13.9881 13.3541 13.9341 13.3541H13.1152C13.0613 13.3541 13.0153 13.335 12.9771 13.2968C12.939 13.2587 12.9199 13.2127 12.9199 13.1587V7.47021Z" fill="#85CAFF"/>
<ellipse cx="5.06355" cy="16.5767" rx="1.79207" ry="1.79207" fill="#F23353"/>
<path fill-rule="evenodd" clip-rule="evenodd" d="M4.91841 18.3682C3.99282 18.2981 3.26367 17.5249 3.26367 16.5813C3.26367 15.6377 3.99282 14.8646 4.91841 14.7944C5.84399 14.8646 6.57314 15.6378 6.57314 16.5813C6.57314 17.5248 5.84395 18.298 4.91841 18.3682V18.3682Z" fill="#FF5471"/>
<ellipse cx="9.61247" cy="16.5793" rx="1.79215" ry="1.79215" fill="#2DD62D"/>
<ellipse cx="14.1691" cy="16.5798" rx="1.79215" ry="1.79215" fill="#4EB1FC"/>
<path fill-rule="evenodd" clip-rule="evenodd" d="M3.5 21.4102C3.31123 21.4102 3.1582 21.2571 3.1582 21.0684C3.1582 20.8796 3.31123 20.7266 3.5 20.7266H6.61279C6.80156 20.7266 6.95459 20.8796 6.95459 21.0684C6.95459 21.2571 6.80156 21.4102 6.61279 21.4102H3.5ZM4.26953 20.0552C4.08076 20.0552 3.92773 19.9021 3.92773 19.7134C3.92773 19.5246 4.08076 19.3716 4.26953 19.3716H5.84404C6.03281 19.3716 6.18584 19.5246 6.18584 19.7134C6.18584 19.9021 6.03281 20.0552 5.84404 20.0552H4.26953Z" fill="#A79BA7"/>
<path fill-rule="evenodd" clip-rule="evenodd" d="M8.05859 21.4102C7.86982 21.4102 7.7168 21.2571 7.7168 21.0684C7.7168 20.8796 7.86982 20.7266 8.05859 20.7266H11.1714C11.3602 20.7266 11.5132 20.8796 11.5132 21.0684C11.5132 21.2571 11.3602 21.4102 11.1714 21.4102H8.05859ZM8.82813 20.0552C8.63936 20.0552 8.48633 19.9021 8.48633 19.7134C8.48633 19.5246 8.63936 19.3716 8.82813 19.3716H10.4026C10.5914 19.3716 10.7444 19.5246 10.7444 19.7134C10.7444 19.9021 10.5914 20.0552 10.4026 20.0552H8.82813Z" fill="#A79BA7"/>
<path fill-rule="evenodd" clip-rule="evenodd" d="M5.68849 17.5538C5.60138 17.5538 5.51198 17.5206 5.44606 17.4538L5.05773 17.0643L4.66705 17.4538C4.53292 17.5875 4.31637 17.5872 4.18458 17.4538C4.05045 17.3203 4.05045 17.1038 4.18458 16.9706L4.57291 16.5809L4.18458 16.1914C4.05045 16.0579 4.05045 15.8414 4.18458 15.708C4.31637 15.5745 4.53292 15.5745 4.66705 15.708L5.05773 16.0977L5.44606 15.708C5.58019 15.5745 5.79674 15.5745 5.93087 15.708C6.06266 15.8414 6.06266 16.0579 5.93087 16.1914L5.5402 16.5809L5.93087 16.9706C6.06266 17.1038 6.06266 17.3204 5.93087 17.4538C5.86261 17.5206 5.77555 17.5538 5.68844 17.5538H5.68849Z" fill="white"/>
<path fill-rule="evenodd" clip-rule="evenodd" d="M9.477 18.3682C8.55142 18.2981 7.82227 17.5249 7.82227 16.5813C7.82227 15.6377 8.55142 14.8646 9.477 14.7944C10.4026 14.8646 11.1317 15.6378 11.1317 16.5813C11.1317 17.5248 10.4025 18.298 9.477 18.3682V18.3682Z" fill="#43F043"/>
<path fill-rule="evenodd" clip-rule="evenodd" d="M14.0356 18.3682C13.11 18.2981 12.3809 17.5249 12.3809 16.5813C12.3809 15.6377 13.11 14.8646 14.0356 14.7944C14.9612 14.8646 15.6903 15.6378 15.6903 16.5813C15.6903 17.5248 14.9611 18.298 14.0356 18.3682V18.3682Z" fill="#85CAFF"/>
<path fill-rule="evenodd" clip-rule="evenodd" d="M13.8372 17.4437C13.8207 17.4437 13.8066 17.4428 13.7925 17.4407C13.6865 17.4268 13.5924 17.3649 13.5406 17.2728L13.1711 16.6315C13.077 16.4679 13.1311 16.2589 13.2959 16.1645C13.4583 16.0702 13.6677 16.1262 13.7619 16.2897L13.9102 16.5453L14.6374 15.8183C14.7692 15.6849 14.9858 15.6849 15.1199 15.8183C15.2541 15.9518 15.2541 16.1681 15.1199 16.3015L14.0773 17.3434C14.0137 17.4081 13.9266 17.4437 13.8372 17.4437L13.8372 17.4437Z" fill="white"/>
<path fill-rule="evenodd" clip-rule="evenodd" d="M9.28053 17.4437C9.26408 17.4437 9.24992 17.4428 9.23581 17.4407C9.1299 17.4268 9.03576 17.3649 8.98395 17.2728L8.61447 16.6315C8.52033 16.4679 8.57448 16.2589 8.73922 16.1645C8.90163 16.0702 9.11105 16.1262 9.20524 16.2897L9.35353 16.5453L10.0808 15.8183C10.2126 15.6849 10.4291 15.6849 10.5632 15.8183C10.6974 15.9518 10.6974 16.1681 10.5632 16.3015L9.52062 17.3434C9.45709 17.4081 9.36998 17.4437 9.28058 17.4437L9.28053 17.4437Z" fill="white"/>
<path fill-rule="evenodd" clip-rule="evenodd" d="M12.6172 21.4102C12.4284 21.4102 12.2754 21.2571 12.2754 21.0684C12.2754 20.8796 12.4284 20.7266 12.6172 20.7266H15.73C15.9188 20.7266 16.0718 20.8796 16.0718 21.0684C16.0718 21.2571 15.9188 21.4102 15.73 21.4102H12.6172ZM13.3867 20.0552C13.1979 20.0552 13.0449 19.9021 13.0449 19.7134C13.0449 19.5246 13.1979 19.3716 13.3867 19.3716H14.9612C15.15 19.3716 15.303 19.5246 15.303 19.7134C15.303 19.9021 15.15 20.0552 14.9612 20.0552H13.3867Z" fill="#A79BA7"/>
<path fill-rule="evenodd" clip-rule="evenodd" d="M21.8555 8.64622L23.4239 9.55174L24.3676 7.91731C24.5078 7.67454 24.4238 7.36121 24.181 7.22103L23.4954 6.82522C23.2526 6.68504 22.9393 6.76902 22.7991 7.01175L21.8555 8.64622Z" fill="#F29988"/>
<path fill-rule="evenodd" clip-rule="evenodd" d="M21.8555 8.64624L22.8893 9.24307L23.8329 7.60865C23.973 7.36587 23.8891 7.05254 23.6463 6.91236L23.4947 6.82481C23.252 6.68521 22.9392 6.76924 22.7991 7.01182L21.8555 8.64624H21.8555Z" fill="#FDB0A0"/>
<path fill-rule="evenodd" clip-rule="evenodd" d="M20.9232 13.9814L21.6518 13.2684L23.8554 9.45163C23.9413 9.30289 23.89 9.11154 23.7413 9.0257L22.1526 8.10851C22.0039 8.02267 21.8125 8.07394 21.7267 8.22262L19.523 12.0394L19.2699 13.0269L16.5174 17.7943L16.0859 20.4506L18.1707 18.7488L20.9232 13.9813V13.9814Z" fill="#F29988"/>
<path fill-rule="evenodd" clip-rule="evenodd" d="M23.1811 8.70212L22.1528 8.10847L22.1517 8.10789C22.0031 8.02292 21.8125 8.07429 21.7269 8.22263L19.5232 12.0394L19.2701 13.0269L16.5176 17.7944L16.2324 19.5503L17.6105 18.4254L20.3629 13.6578L21.0916 12.9448L23.2952 9.12805C23.3811 8.97932 23.3297 8.78796 23.1811 8.70212V8.70212Z" fill="#FDB0A0"/>
<path fill-rule="evenodd" clip-rule="evenodd" d="M20.9229 13.9814L21.6515 13.2684L23.8551 9.45162C23.941 9.30289 23.8897 9.11154 23.741 9.0257L22.1523 8.10851C22.0036 8.02267 21.8122 8.07394 21.7263 8.22262L19.5227 12.0394L19.2695 13.0269L20.9229 13.9815L20.9229 13.9814Z" fill="#A34F41"/>
<path fill-rule="evenodd" clip-rule="evenodd" d="M23.1805 8.70212L22.1523 8.10847L22.1512 8.10789C22.0026 8.02292 21.812 8.07429 21.7263 8.22263L19.5227 12.0394L19.2695 13.0269L20.3624 13.6579L21.091 12.9449L23.2946 9.12815C23.3805 8.97942 23.3292 8.78806 23.1805 8.70222L23.1805 8.70212Z" fill="#C86F5C"/>
<path fill-rule="evenodd" clip-rule="evenodd" d="M16.5174 17.7944L16.0859 20.4508L18.1707 18.749L16.5174 17.7944Z" fill="#C86F5C"/>
<path fill-rule="evenodd" clip-rule="evenodd" d="M16.446 20.5086C16.3524 20.6716 16.1443 20.7278 15.9814 20.6341C15.8184 20.5405 15.7622 20.3325 15.8559 20.1695L16.8773 18.4003C16.9709 18.2374 17.1789 18.1811 17.3419 18.2748C17.5048 18.3685 17.561 18.5765 17.4674 18.7394L16.446 20.5086V20.5086Z" fill="#C86F5C"/>
</svg>
