<?xml version="1.0" encoding="utf-8"?>
<svg width="243.434" height="200.703" viewBox="0 0 243.434 200.703" fill="none" xmlns="http://www.w3.org/2000/svg">
  <g>
    <g>
      <path d="M0 0L58.5551 0L43.8041 15.4243L58.5551 30.836L29.2776 30.836L29.2776 5.43283L1.14719 1.04909L1.14719 30.836L0 30.836L0 0L0 0Z" fill="#E7EC9D" fill-rule="evenodd" transform="translate(184.879 76.571)" />
      <path d="M58.5551 0L0 0L14.751 15.4243L0 30.836L29.4147 30.836L29.4147 5.72009L57.4079 1.04909L57.4079 30.836L58.5551 30.836L58.5551 0L58.5551 0Z" fill="#E7EC9D" fill-rule="evenodd" transform="translate(0 76.571)" />
      <path d="M139.455 0.00263596L139.455 120.259C139.455 123.406 137.672 126.379 134.704 128.227L69.7274 168.43L4.75074 128.227C1.77062 126.379 0 123.406 0 120.259L0 0C23.1178 5.08313 46.5722 7.65592 69.7274 7.65592C92.8786 7.65592 116.329 5.08402 139.455 0.00263596L139.455 0.00263596ZM139.453 0L139.453 1L140.453 0L139.453 0L139.453 0Z" fill="#CEBE49" fill-rule="evenodd" transform="translate(51.996 14.612)" />
      <path d="M146.737 2.04824C146.737 0.786825 145.502 0 144.355 0C144.143 0 143.919 0.0249786 143.694 0.0749369C120.377 5.32043 96.723 7.96815 73.3683 7.96815C50.0137 7.96815 26.3597 5.30794 3.04247 0.0749369C2.81802 0.0249786 2.59358 0 2.3816 0C1.23445 0 0 0.786825 0 2.04824L0 123.681C0 127.828 2.3442 131.749 6.2595 134.172L73.3683 175.699L140.477 134.172C144.392 131.749 146.737 127.828 146.737 123.681L146.737 2.04824L146.737 2.04824ZM143.107 123.681C143.107 126.828 141.324 129.801 138.356 131.649L73.3797 171.865L8.40308 131.649C5.42295 129.813 3.65234 126.828 3.65234 123.681L3.65234 3.42212C26.7826 8.50525 50.237 11.0906 73.3922 11.0906C96.5474 11.0906 120.002 8.51773 143.132 3.42212L143.132 123.681L143.107 123.681L143.107 123.681Z" fill="#FFFFFF" fill-rule="evenodd" transform="translate(48.34 11.19)" />
      <path d="M157.423 0C156.114 0 154.779 0.137383 153.433 0.437123C131.101 5.45781 108.781 7.96815 86.4361 7.96815C64.0914 7.96815 41.7591 5.45781 19.4394 0.437123C18.1052 0.137378 16.771 0 15.4617 0C7.16975 0 0 5.73258 0 13.2386L0 134.872C0 142.628 4.35173 149.896 11.6711 154.442L86.4361 200.703L161.201 154.442C168.533 149.896 172.872 142.627 172.872 134.872L172.872 13.2386C172.872 5.72009 165.702 0 157.423 0L157.423 0ZM159.803 134.872C159.803 139.006 157.459 142.927 153.544 145.363L86.4348 186.889L19.3384 145.363C15.4106 142.94 13.0664 139.018 13.0664 134.872L13.0664 13.2386C13.0664 11.9772 14.3133 11.1904 15.4605 11.1904C15.6725 11.1904 15.8969 11.2154 16.1214 11.2653C39.4262 16.4983 63.0926 19.1586 86.4348 19.1586C109.777 19.1586 133.444 16.4983 156.748 11.2653C156.973 11.2154 157.21 11.1904 157.422 11.1904C158.569 11.1904 159.803 11.9772 159.803 13.2386L159.803 134.872L159.803 134.872Z" fill="#CEBE49" fill-rule="evenodd" transform="translate(35.289 0)" />
      <g transform="translate(29.965 89.186)">
        <path d="M172.872 0L172.872 34.358C168.72 36.7809 164.356 39.004 159.804 41.0398C138.657 50.5691 113.469 56.1018 86.4485 56.1018C59.4279 56.1018 34.2278 50.5691 13.0677 41.0398C8.51642 39.004 4.15222 36.7685 0 34.358L0 0C4.16469 2.41043 8.51642 4.63352 13.0677 6.68176C34.2278 16.2111 59.403 21.7438 86.4485 21.7438C113.494 21.7438 138.657 16.2111 159.804 6.68176C164.356 4.63352 168.72 2.39794 172.872 0L172.872 0Z" fill="#000000" fill-rule="evenodd" transform="translate(5.324 3.46)" />
        <path d="M1 1C0.67442 0.800007 0.32558 0.599996 0 0.400002L0 0C0.32558 0.333339 0.67442 0.666677 1 1L1 1Z" fill="#000000" fill-rule="evenodd" />
        <path d="M1 0L1 0.400002C0.674408 0.599996 0.325592 0.800007 0 1C0.325592 0.644434 0.674408 0.311111 1 0L1 0Z" fill="#000000" fill-rule="evenodd" transform="translate(182.973 0)" />
      </g>
      <path d="M183.508 0L183.508 34.3705C159.343 49.8697 127.135 59.3365 91.7603 59.3365C56.3854 59.3365 24.1652 49.8697 0 34.3705L0 1.52588e-05C0.174566 0.112419 0.349134 0.224823 0.523701 0.337227C24.6265 15.6366 56.6223 24.9786 91.7479 24.9786C126.873 24.9786 158.869 15.6491 182.972 0.337234C183.147 0.224838 183.321 0.112427 183.496 3.05176e-05L183.508 0L183.508 0Z" fill="#E7EC9D" fill-rule="evenodd" transform="translate(29.965 82.879)" />
      <path d="M1 1C0.666666 0.804352 0.333334 0.608696 0 0.413048L0 0C0.333334 0.326088 0.666666 0.652184 1 1L1 1Z" fill="#E7EC9D" fill-rule="evenodd" transform="translate(29.965 82.642)" />
      <path d="M1 0L1 0.413048C0.666672 0.608696 0.333328 0.804352 0 1C0.333328 0.673912 0.666672 0.347816 1 0L1 0Z" fill="#E7EC9D" fill-rule="evenodd" transform="translate(212.949 82.642)" />
    </g>
    <path d="M1.94 17.84Q3.86 16.24 5 15.17Q6.14 14.1 6.9 12.94Q7.66 11.78 7.66 10.66Q7.66 9.64 7.18 9.06Q6.7 8.48 5.7 8.48Q4.7 8.48 4.16 9.15Q3.62 9.82 3.6 10.98L0.88 10.98Q0.96 8.58 2.31 7.34Q3.66 6.1 5.74 6.1Q8.02 6.1 9.24 7.31Q10.46 8.52 10.46 10.5Q10.46 12.06 9.62 13.48Q8.78 14.9 7.7 15.95Q6.62 17 4.88 18.48L10.78 18.48L10.78 20.8L0.9 20.8L0.9 18.72L1.94 17.84ZM12.54 13.52Q12.54 10.06 13.79 8.1Q15.04 6.14 17.94 6.14Q20.84 6.14 22.09 8.1Q23.34 10.06 23.34 13.52Q23.34 17 22.09 18.98C21.2567 20.3 19.8733 20.96 17.94 20.96C16.0067 20.96 14.6233 20.3 13.79 18.98Q12.54 17 12.54 13.52ZM20.58 13.52Q20.58 12.04 20.39 11.03Q20.2 10.02 19.63 9.38Q19.06 8.74 17.94 8.74Q16.82 8.74 16.25 9.38Q15.68 10.02 15.49 11.03Q15.3 12.04 15.3 13.52Q15.3 15.04 15.48 16.07Q15.66 17.1 16.24 17.73Q16.82 18.36 17.94 18.36Q19.06 18.36 19.64 17.73Q20.22 17.1 20.4 16.07Q20.58 15.04 20.58 13.52ZM26.34 17.84Q28.26 16.24 29.4 15.17Q30.54 14.1 31.3 12.94Q32.06 11.78 32.06 10.66Q32.06 9.64 31.58 9.06Q31.1 8.48 30.1 8.48Q29.1 8.48 28.56 9.15Q28.02 9.82 28 10.98L25.28 10.98Q25.36 8.58 26.71 7.34Q28.06 6.1 30.14 6.1Q32.42 6.1 33.64 7.31Q34.86 8.52 34.86 10.5Q34.86 12.06 34.02 13.48Q33.18 14.9 32.1 15.95Q31.02 17 29.28 18.48L35.18 18.48L35.18 20.8L25.3 20.8L25.3 18.72L26.34 17.84ZM36.94 13.52Q36.94 10.06 38.19 8.1Q39.44 6.14 42.34 6.14Q45.24 6.14 46.49 8.1Q47.74 10.06 47.74 13.52Q47.74 17 46.49 18.98C45.6567 20.3 44.2733 20.96 42.34 20.96C40.4067 20.96 39.0233 20.3 38.19 18.98Q36.94 17 36.94 13.52ZM44.98 13.52Q44.98 12.04 44.79 11.03Q44.6 10.02 44.03 9.38Q43.46 8.74 42.34 8.74Q41.22 8.74 40.65 9.38Q40.08 10.02 39.89 11.03Q39.7 12.04 39.7 13.52Q39.7 15.04 39.88 16.07Q40.06 17.1 40.64 17.73Q41.22 18.36 42.34 18.36Q43.46 18.36 44.04 17.73Q44.62 17.1 44.8 16.07Q44.98 15.04 44.98 13.52Z" transform="translate(97.215 113.832)" fill="#8D812D" />
    <g transform="translate(77.215 44.832)">
      <path d="M7.952 14.672L3.504 14.672L2.768 16.8L0.416 16.8L4.432 5.616L7.04 5.616L11.056 16.8L8.688 16.8L7.952 14.672ZM7.344 12.88L5.728 8.208L4.112 12.88L7.344 12.88ZM18.896 11.072Q19.84 11.248 20.448 12.016Q21.056 12.784 21.056 13.776Q21.056 14.672 20.616 15.352Q20.176 16.032 19.344 16.416C18.7893 16.672 18.1333 16.8 17.376 16.8L12.56 16.8L12.56 5.632L17.168 5.632Q18.304 5.632 19.128 6Q19.952 6.368 20.376 7.024Q20.8 7.68 20.8 8.512Q20.8 9.488 20.28 10.144Q19.76 10.8 18.896 11.072ZM14.8 10.24L16.848 10.24Q17.648 10.24 18.08 9.88Q18.512 9.52 18.512 8.848Q18.512 8.176 18.08 7.808Q17.648 7.44 16.848 7.44L14.8 7.44L14.8 10.24ZM17.056 14.976Q17.872 14.976 18.328 14.592Q18.784 14.208 18.784 13.504Q18.784 12.784 18.304 12.376Q17.824 11.968 17.008 11.968L14.8 11.968L14.8 14.976L17.056 14.976ZM30.992 9.088Q30.992 9.984 30.568 10.768Q30.144 11.552 29.24 12.032Q28.336 12.512 26.96 12.512L25.088 12.512L25.088 16.8L22.848 16.8L22.848 5.632L26.96 5.632Q28.256 5.632 29.168 6.08Q30.08 6.528 30.536 7.312Q30.992 8.096 30.992 9.088ZM26.864 10.704Q27.792 10.704 28.24 10.28Q28.688 9.856 28.688 9.088Q28.688 7.456 26.864 7.456L25.088 7.456L25.088 10.704L26.864 10.704ZM43.232 14.672L38.784 14.672L38.048 16.8L35.696 16.8L39.712 5.616L42.32 5.616L46.336 16.8L43.968 16.8L43.232 14.672ZM42.624 12.88L41.008 8.208L39.392 12.88L42.624 12.88ZM60.128 7.936L57.536 16.8L55.12 16.8L53.504 10.608L51.888 16.8L49.456 16.8L46.848 7.936L49.12 7.936L50.688 14.688L52.384 7.936L54.752 7.936L56.416 14.672L57.984 7.936L60.128 7.936ZM60.768 12.336Q60.768 10.992 61.304 9.952Q61.84 8.912 62.76 8.352Q63.68 7.792 64.816 7.792Q65.808 7.792 66.552 8.192Q67.296 8.592 67.744 9.2L67.744 7.936L70 7.936L70 16.8L67.744 16.8L67.744 15.504Q67.312 16.128 66.552 16.536Q65.792 16.944 64.8 16.944Q63.68 16.944 62.76 16.368Q61.84 15.792 61.304 14.744Q60.768 13.696 60.768 12.336ZM67.744 12.368Q67.744 11.552 67.424 10.968Q67.104 10.384 66.56 10.072Q66.016 9.76 65.392 9.76Q64.768 9.76 64.24 10.064Q63.712 10.368 63.384 10.952Q63.056 11.536 63.056 12.336Q63.056 13.136 63.384 13.736Q63.712 14.336 64.248 14.656Q64.784 14.976 65.392 14.976Q66.016 14.976 66.56 14.664Q67.104 14.352 67.424 13.768Q67.744 13.184 67.744 12.368ZM74.432 9.312Q74.864 8.608 75.56 8.208Q76.256 7.808 77.152 7.808L77.152 10.16L76.56 10.16Q75.504 10.16 74.968 10.656Q74.432 11.152 74.432 12.384L74.432 16.8L72.192 16.8L72.192 7.936L74.432 7.936L74.432 9.312ZM78.08 12.336Q78.08 10.992 78.616 9.952Q79.152 8.912 80.08 8.352Q81.008 7.792 82.144 7.792Q83.008 7.792 83.792 8.168Q84.576 8.544 85.04 9.168L85.04 4.96L87.312 4.96L87.312 16.8L85.04 16.8L85.04 15.488Q84.624 16.144 83.872 16.544Q83.12 16.944 82.128 16.944Q81.008 16.944 80.08 16.368Q79.152 15.792 78.616 14.744Q78.08 13.696 78.08 12.336ZM85.056 12.368Q85.056 11.552 84.736 10.968Q84.416 10.384 83.872 10.072Q83.328 9.76 82.704 9.76Q82.08 9.76 81.552 10.064Q81.024 10.368 80.696 10.952Q80.368 11.536 80.368 12.336Q80.368 13.136 80.696 13.736Q81.024 14.336 81.56 14.656Q82.096 14.976 82.704 14.976Q83.328 14.976 83.872 14.664Q84.416 14.352 84.736 13.768Q85.056 13.184 85.056 12.368Z" transform="translate(0 -1)" fill="#FFFFFF" />
      <path d="M1.552 14.272Q3.088 12.992 4 12.136Q4.912 11.28 5.52 10.352Q6.128 9.424 6.128 8.528Q6.128 7.712 5.744 7.248Q5.36 6.784 4.56 6.784Q3.76 6.784 3.328 7.32Q2.896 7.856 2.88 8.784L0.704 8.784Q0.768 6.864 1.848 5.872Q2.928 4.88 4.592 4.88Q6.416 4.88 7.392 5.848Q8.368 6.816 8.368 8.4Q8.368 9.648 7.696 10.784Q7.024 11.92 6.16 12.76Q5.296 13.6 3.904 14.784L8.624 14.784L8.624 16.64L0.72 16.64L0.72 14.976L1.552 14.272ZM10.032 10.816Q10.032 8.048 11.032 6.48Q12.032 4.912 14.352 4.912Q16.672 4.912 17.672 6.48Q18.672 8.048 18.672 10.816Q18.672 13.6 17.672 15.184C17.0053 16.24 15.8987 16.768 14.352 16.768C12.8053 16.768 11.6987 16.24 11.032 15.184Q10.032 13.6 10.032 10.816ZM16.464 10.816Q16.464 9.632 16.312 8.824Q16.16 8.016 15.704 7.504Q15.248 6.992 14.352 6.992Q13.456 6.992 13 7.504Q12.544 8.016 12.392 8.824Q12.24 9.632 12.24 10.816Q12.24 12.032 12.384 12.856Q12.528 13.68 12.992 14.184Q13.456 14.688 14.352 14.688Q15.248 14.688 15.712 14.184Q16.176 13.68 16.32 12.856Q16.464 12.032 16.464 10.816ZM20.096 7.2L20.096 5.136L23.952 5.136L23.952 16.8L21.648 16.8L21.648 7.2L20.096 7.2ZM28.112 10.624Q26.512 9.792 26.512 8.048Q26.512 7.184 26.952 6.472Q27.392 5.76 28.28 5.336Q29.168 4.912 30.448 4.912Q31.728 4.912 32.616 5.336Q33.504 5.76 33.944 6.472Q34.384 7.184 34.384 8.048Q34.384 8.928 33.952 9.592Q33.52 10.256 32.8 10.624Q33.68 11.008 34.176 11.744Q34.672 12.48 34.672 13.488Q34.672 14.576 34.12 15.384Q33.568 16.192 32.608 16.624Q31.648 17.056 30.448 17.056Q29.248 17.056 28.296 16.624Q27.344 16.192 26.792 15.384Q26.24 14.576 26.24 13.488Q26.24 12.48 26.736 11.736Q27.232 10.992 28.112 10.624ZM32.208 8.368Q32.208 7.584 31.736 7.152Q31.264 6.72 30.448 6.72Q29.648 6.72 29.176 7.152Q28.704 7.584 28.704 8.384Q28.704 9.104 29.192 9.536Q29.68 9.968 30.448 9.968Q31.216 9.968 31.712 9.528Q32.208 9.088 32.208 8.368ZM30.448 11.6Q29.536 11.6 28.968 12.064Q28.4 12.528 28.4 13.392Q28.4 14.192 28.952 14.696Q29.504 15.2 30.448 15.2Q31.392 15.2 31.936 14.688Q32.48 14.176 32.48 13.392Q32.48 12.544 31.92 12.072Q31.36 11.6 30.448 11.6Z" transform="translate(26.4 21)" fill="#FFFFFF" />
    </g>
  </g>
</svg>