<?xml version="1.0" encoding="utf-8"?>
<svg width="243.434" height="200.703" viewBox="0 0 243.434 200.703" fill="none" xmlns="http://www.w3.org/2000/svg">
  <g>
    <g>
      <path d="M0 0L58.5551 0L43.8041 15.4243L58.5551 30.836L29.2776 30.836L29.2776 5.43283L1.14719 1.04909L1.14719 30.836L0 30.836L0 0L0 0Z" fill="#FFBEBE" fill-rule="evenodd" transform="translate(184.879 76.571)" />
      <path d="M58.5551 0L0 0L14.751 15.4243L0 30.836L29.4147 30.836L29.4147 5.72009L57.4079 1.04909L57.4079 30.836L58.5551 30.836L58.5551 0L58.5551 0Z" fill="#FFBEBE" fill-rule="evenodd" transform="translate(0 76.571)" />
      <path d="M139.455 0.00263596L139.455 120.259C139.455 123.406 137.672 126.379 134.704 128.227L69.7274 168.43L4.75074 128.227C1.77062 126.379 0 123.406 0 120.259L0 0C23.1178 5.08313 46.5722 7.65592 69.7274 7.65592C92.8786 7.65592 116.329 5.08402 139.455 0.00263596L139.455 0.00263596ZM139.457 0L139.457 1L140.457 0L139.457 0L139.457 0Z" fill="#EB6161" fill-rule="evenodd" transform="translate(51.996 14.612)" />
      <path d="M146.737 2.04824C146.737 0.786825 145.502 0 144.355 0C144.143 0 143.919 0.0249786 143.694 0.0749369C120.377 5.32043 96.723 7.96815 73.3683 7.96815C50.0137 7.96815 26.3597 5.30794 3.04247 0.0749369C2.81802 0.0249786 2.59358 0 2.3816 0C1.23445 0 0 0.786825 0 2.04824L0 123.681C0 127.828 2.3442 131.749 6.2595 134.172L73.3683 175.699L140.477 134.172C144.392 131.749 146.737 127.828 146.737 123.681L146.737 2.04824L146.737 2.04824ZM143.107 123.681C143.107 126.828 141.324 129.801 138.356 131.649L73.3797 171.865L8.40308 131.649C5.42295 129.813 3.65234 126.828 3.65234 123.681L3.65234 3.42212C26.7826 8.50525 50.237 11.0906 73.3922 11.0906C96.5474 11.0906 120.002 8.51773 143.132 3.42212L143.132 123.681L143.107 123.681L143.107 123.681Z" fill="#FFFFFF" fill-rule="evenodd" transform="translate(48.344 11.19)" />
      <path d="M157.423 0C156.114 0 154.779 0.137383 153.433 0.437123C131.101 5.45781 108.781 7.96815 86.4361 7.96815C64.0914 7.96815 41.7591 5.45781 19.4394 0.437123C18.1052 0.137378 16.771 0 15.4617 0C7.16975 0 0 5.73258 0 13.2386L0 134.872C0 142.628 4.35173 149.896 11.6711 154.442L86.4361 200.703L161.201 154.442C168.533 149.896 172.872 142.627 172.872 134.872L172.872 13.2386C172.872 5.72009 165.702 0 157.423 0L157.423 0ZM159.803 134.872C159.803 139.006 157.459 142.927 153.544 145.363L86.4348 186.889L19.3384 145.363C15.4106 142.94 13.0664 139.018 13.0664 134.872L13.0664 13.2386C13.0664 11.9772 14.3133 11.1904 15.4605 11.1904C15.6725 11.1904 15.8969 11.2154 16.1214 11.2653C39.4262 16.4983 63.0926 19.1586 86.4348 19.1586C109.777 19.1586 133.444 16.4983 156.748 11.2653C156.973 11.2154 157.21 11.1904 157.422 11.1904C158.569 11.1904 159.803 11.9772 159.803 13.2386L159.803 134.872L159.803 134.872Z" fill="#EB6161" fill-rule="evenodd" transform="translate(35.289 0)" />
      <g transform="translate(29.965 89.186)">
        <path d="M172.872 0L172.872 34.358C168.72 36.7809 164.356 39.004 159.804 41.0398C138.657 50.5691 113.469 56.1018 86.4485 56.1018C59.4279 56.1018 34.2278 50.5691 13.0677 41.0398C8.51642 39.004 4.15222 36.7685 0 34.358L0 0C4.16469 2.41043 8.51642 4.63352 13.0677 6.68176C34.2278 16.2111 59.403 21.7438 86.4485 21.7438C113.494 21.7438 138.657 16.2111 159.804 6.68176C164.356 4.63352 168.72 2.39794 172.872 0L172.872 0Z" fill="#000000" fill-rule="evenodd" transform="translate(5.324 3.46)" />
        <path d="M1 1C0.67442 0.800007 0.32558 0.599996 0 0.400002L0 0C0.32558 0.333339 0.67442 0.666677 1 1L1 1Z" fill="#000000" fill-rule="evenodd" />
        <path d="M1 0L1 0.400002C0.674408 0.599996 0.325592 0.800007 0 1C0.325592 0.644434 0.674408 0.311111 1 0L1 0Z" fill="#000000" fill-rule="evenodd" transform="translate(182.973 0)" />
      </g>
      <path d="M183.508 0L183.508 34.3705C159.343 49.8697 127.135 59.3365 91.7603 59.3365C56.3854 59.3365 24.1652 49.8697 0 34.3705L0 1.52588e-05C0.174566 0.112419 0.349134 0.224823 0.523701 0.337227C24.6265 15.6366 56.6223 24.9786 91.7479 24.9786C126.873 24.9786 158.869 15.6491 182.972 0.337234C183.147 0.224838 183.321 0.112427 183.496 3.05176e-05L183.508 0L183.508 0Z" fill="#FFBEBE" fill-rule="evenodd" transform="translate(29.965 82.879)" />
      <path d="M1 1C0.666666 0.804352 0.333334 0.608696 0 0.413048L0 0C0.333334 0.326088 0.666666 0.652184 1 1L1 1Z" fill="#FFBEBE" fill-rule="evenodd" transform="translate(29.965 82.642)" />
      <path d="M1 0L1 0.413048C0.666672 0.608696 0.333328 0.804352 0 1C0.333328 0.673912 0.666672 0.347816 1 0L1 0Z" fill="#FFBEBE" fill-rule="evenodd" transform="translate(212.945 82.642)" />
    </g>
    <g transform="translate(76.719 33.832)">
      <path d="M3.344 7.44L3.344 10.24L7.104 10.24L7.104 12.016L3.344 12.016L3.344 14.976L7.584 14.976L7.584 16.8L1.104 16.8L1.104 5.616L7.584 5.616L7.584 7.44L3.344 7.44ZM9.04 12.336Q9.04 10.992 9.576 9.952Q10.112 8.912 11.04 8.352Q11.968 7.792 13.104 7.792Q13.968 7.792 14.752 8.168Q15.536 8.544 16 9.168L16 4.96L18.272 4.96L18.272 16.8L16 16.8L16 15.488Q15.584 16.144 14.832 16.544Q14.08 16.944 13.088 16.944Q11.968 16.944 11.04 16.368Q10.112 15.792 9.576 14.744Q9.04 13.696 9.04 12.336ZM16.016 12.368Q16.016 11.552 15.696 10.968Q15.376 10.384 14.832 10.072Q14.288 9.76 13.664 9.76Q13.04 9.76 12.512 10.064Q11.984 10.368 11.656 10.952Q11.328 11.536 11.328 12.336Q11.328 13.136 11.656 13.736Q11.984 14.336 12.52 14.656Q13.056 14.976 13.664 14.976Q14.288 14.976 14.832 14.664Q15.376 14.352 15.696 13.768Q16.016 13.184 16.016 12.368ZM23.072 9.776L23.072 14.064Q23.072 14.512 23.288 14.712Q23.504 14.912 24.016 14.912L25.056 14.912L25.056 16.8L23.648 16.8Q20.816 16.8 20.816 14.048L20.816 9.776L19.76 9.776L19.76 7.936L20.816 7.936L20.816 5.744L23.072 5.744L23.072 7.936L25.056 7.936L25.056 9.776L23.072 9.776ZM34.912 12.176Q34.912 12.656 34.848 13.04L28.368 13.04Q28.448 14 29.04 14.544Q29.632 15.088 30.496 15.088Q31.744 15.088 32.272 14.016L34.688 14.016Q34.304 15.296 33.216 16.12Q32.128 16.944 30.544 16.944Q29.264 16.944 28.248 16.376Q27.232 15.808 26.664 14.768Q26.096 13.728 26.096 12.368Q26.096 10.992 26.656 9.952Q27.216 8.912 28.224 8.352Q29.232 7.792 30.544 7.792Q31.808 7.792 32.808 8.336Q33.808 8.88 34.36 9.88Q34.912 10.88 34.912 12.176ZM32.592 11.536Q32.576 10.672 31.968 10.152Q31.36 9.632 30.48 9.632Q29.648 9.632 29.08 10.136Q28.512 10.64 28.384 11.536L32.592 11.536ZM35.968 12.368Q35.968 10.992 36.528 9.96Q37.088 8.928 38.08 8.36Q39.072 7.792 40.352 7.792Q42 7.792 43.08 8.616Q44.16 9.44 44.528 10.928L42.112 10.928Q41.92 10.352 41.464 10.024Q41.008 9.696 40.336 9.696Q39.376 9.696 38.816 10.392Q38.256 11.088 38.256 12.368Q38.256 13.632 38.816 14.328Q39.376 15.024 40.336 15.024Q41.696 15.024 42.112 13.808L44.528 13.808Q44.16 15.248 43.072 16.096Q41.984 16.944 40.352 16.944Q39.072 16.944 38.08 16.376Q37.088 15.808 36.528 14.776Q35.968 13.744 35.968 12.368ZM51.168 7.808Q52.176 7.808 52.96 8.248Q53.744 8.688 54.184 9.544Q54.624 10.4 54.624 11.6L54.624 16.8L52.384 16.8L52.384 11.904Q52.384 10.848 51.856 10.28Q51.328 9.712 50.416 9.712Q49.488 9.712 48.952 10.28Q48.416 10.848 48.416 11.904L48.416 16.8L46.176 16.8L46.176 4.96L48.416 4.96L48.416 9.04Q48.848 8.464 49.568 8.136Q50.288 7.808 51.168 7.808Z" transform="translate(17.096 -1)" fill="#FFFFFF" />
      <path d="M3.344 15.024L7.024 15.024L7.024 16.8L1.104 16.8L1.104 5.632L3.344 5.632L3.344 15.024ZM16.688 12.176Q16.688 12.656 16.624 13.04L10.144 13.04Q10.224 14 10.816 14.544Q11.408 15.088 12.272 15.088Q13.52 15.088 14.048 14.016L16.464 14.016Q16.08 15.296 14.992 16.12Q13.904 16.944 12.32 16.944Q11.04 16.944 10.024 16.376Q9.008 15.808 8.44 14.768Q7.872 13.728 7.872 12.368Q7.872 10.992 8.432 9.952Q8.992 8.912 10 8.352Q11.008 7.792 12.32 7.792Q13.584 7.792 14.584 8.336Q15.584 8.88 16.136 9.88Q16.688 10.88 16.688 12.176ZM14.368 11.536Q14.352 10.672 13.744 10.152Q13.136 9.632 12.256 9.632Q11.424 9.632 10.856 10.136Q10.288 10.64 10.16 11.536L14.368 11.536ZM17.744 12.336Q17.744 10.992 18.28 9.952Q18.816 8.912 19.736 8.352Q20.656 7.792 21.792 7.792Q22.784 7.792 23.528 8.192Q24.272 8.592 24.72 9.2L24.72 7.936L26.976 7.936L26.976 16.8L24.72 16.8L24.72 15.504Q24.288 16.128 23.528 16.536Q22.768 16.944 21.776 16.944Q20.656 16.944 19.736 16.368Q18.816 15.792 18.28 14.744Q17.744 13.696 17.744 12.336ZM24.72 12.368Q24.72 11.552 24.4 10.968Q24.08 10.384 23.536 10.072Q22.992 9.76 22.368 9.76Q21.744 9.76 21.216 10.064Q20.688 10.368 20.36 10.952Q20.032 11.536 20.032 12.336Q20.032 13.136 20.36 13.736Q20.688 14.336 21.224 14.656Q21.76 14.976 22.368 14.976Q22.992 14.976 23.536 14.664Q24.08 14.352 24.4 13.768Q24.72 13.184 24.72 12.368ZM28.592 12.336Q28.592 10.992 29.128 9.952Q29.664 8.912 30.592 8.352Q31.52 7.792 32.656 7.792Q33.52 7.792 34.304 8.168Q35.088 8.544 35.552 9.168L35.552 4.96L37.824 4.96L37.824 16.8L35.552 16.8L35.552 15.488Q35.136 16.144 34.384 16.544Q33.632 16.944 32.64 16.944Q31.52 16.944 30.592 16.368Q29.664 15.792 29.128 14.744Q28.592 13.696 28.592 12.336ZM35.568 12.368Q35.568 11.552 35.248 10.968Q34.928 10.384 34.384 10.072Q33.84 9.76 33.216 9.76Q32.592 9.76 32.064 10.064Q31.536 10.368 31.208 10.952Q30.88 11.536 30.88 12.336Q30.88 13.136 31.208 13.736Q31.536 14.336 32.072 14.656Q32.608 14.976 33.216 14.976Q33.84 14.976 34.384 14.664Q34.928 14.352 35.248 13.768Q35.568 13.184 35.568 12.368ZM48.256 12.176Q48.256 12.656 48.192 13.04L41.712 13.04Q41.792 14 42.384 14.544Q42.976 15.088 43.84 15.088Q45.088 15.088 45.616 14.016L48.032 14.016Q47.648 15.296 46.56 16.12Q45.472 16.944 43.888 16.944Q42.608 16.944 41.592 16.376Q40.576 15.808 40.008 14.768Q39.44 13.728 39.44 12.368Q39.44 10.992 40 9.952Q40.56 8.912 41.568 8.352Q42.576 7.792 43.888 7.792Q45.152 7.792 46.152 8.336Q47.152 8.88 47.704 9.88Q48.256 10.88 48.256 12.176ZM45.936 11.536Q45.92 10.672 45.312 10.152Q44.704 9.632 43.824 9.632Q42.992 9.632 42.424 10.136Q41.856 10.64 41.728 11.536L45.936 11.536ZM52.128 9.312Q52.56 8.608 53.256 8.208Q53.952 7.808 54.848 7.808L54.848 10.16L54.256 10.16Q53.2 10.16 52.664 10.656Q52.128 11.152 52.128 12.384L52.128 16.8L49.888 16.8L49.888 7.936L52.128 7.936L52.128 9.312ZM59.744 16.944Q58.656 16.944 57.792 16.552Q56.928 16.16 56.424 15.488Q55.92 14.816 55.872 14L58.128 14Q58.192 14.512 58.632 14.848Q59.072 15.184 59.728 15.184Q60.368 15.184 60.728 14.928Q61.088 14.672 61.088 14.272Q61.088 13.84 60.648 13.624Q60.208 13.408 59.248 13.152Q58.256 12.912 57.624 12.656Q56.992 12.4 56.536 11.872Q56.08 11.344 56.08 10.448Q56.08 9.712 56.504 9.104Q56.928 8.496 57.72 8.144Q58.512 7.792 59.584 7.792Q61.168 7.792 62.112 8.584Q63.056 9.376 63.152 10.72L61.008 10.72Q60.96 10.192 60.568 9.88Q60.176 9.568 59.52 9.568Q58.912 9.568 58.584 9.792Q58.256 10.016 58.256 10.416Q58.256 10.864 58.704 11.096Q59.152 11.328 60.096 11.568Q61.056 11.808 61.68 12.064Q62.304 12.32 62.76 12.856Q63.216 13.392 63.232 14.272Q63.232 15.04 62.808 15.648Q62.384 16.256 61.592 16.6Q60.8 16.944 59.744 16.944ZM70.064 7.808Q71.072 7.808 71.856 8.248Q72.64 8.688 73.08 9.544Q73.52 10.4 73.52 11.6L73.52 16.8L71.28 16.8L71.28 11.904Q71.28 10.848 70.752 10.28Q70.224 9.712 69.312 9.712Q68.384 9.712 67.848 10.28Q67.312 10.848 67.312 11.904L67.312 16.8L65.072 16.8L65.072 4.96L67.312 4.96L67.312 9.04Q67.744 8.464 68.464 8.136Q69.184 7.808 70.064 7.808ZM76.784 6.88Q76.192 6.88 75.8 6.504Q75.408 6.128 75.408 5.568Q75.408 5.008 75.8 4.632Q76.192 4.256 76.784 4.256Q77.376 4.256 77.768 4.632Q78.16 5.008 78.16 5.568Q78.16 6.128 77.768 6.504Q77.376 6.88 76.784 6.88ZM77.888 7.936L77.888 16.8L75.648 16.8L75.648 7.936L77.888 7.936ZM82.336 9.216Q82.768 8.608 83.528 8.2Q84.288 7.792 85.264 7.792Q86.4 7.792 87.32 8.352Q88.24 8.912 88.776 9.944Q89.312 10.976 89.312 12.336Q89.312 13.696 88.776 14.744Q88.24 15.792 87.32 16.368Q86.4 16.944 85.264 16.944Q84.288 16.944 83.544 16.544Q82.8 16.144 82.336 15.536L82.336 21.024L80.096 21.024L80.096 7.936L82.336 7.936L82.336 9.216ZM87.024 12.336Q87.024 11.536 86.696 10.952Q86.368 10.368 85.832 10.064Q85.296 9.76 84.672 9.76Q84.064 9.76 83.528 10.072Q82.992 10.384 82.664 10.976Q82.336 11.568 82.336 12.368Q82.336 13.168 82.664 13.76Q82.992 14.352 83.528 14.664Q84.064 14.976 84.672 14.976Q85.296 14.976 85.832 14.656Q86.368 14.336 86.696 13.744Q87.024 13.152 87.024 12.336Z" transform="translate(0 21)" fill="#FFFFFF" />
      <path d="M7.952 14.672L3.504 14.672L2.768 16.8L0.416 16.8L4.432 5.616L7.04 5.616L11.056 16.8L8.688 16.8L7.952 14.672ZM7.344 12.88L5.728 8.208L4.112 12.88L7.344 12.88ZM24.848 7.936L22.256 16.8L19.84 16.8L18.224 10.608L16.608 16.8L14.176 16.8L11.568 7.936L13.84 7.936L15.408 14.688L17.104 7.936L19.472 7.936L21.136 14.672L22.704 7.936L24.848 7.936ZM25.488 12.336Q25.488 10.992 26.024 9.952Q26.56 8.912 27.48 8.352Q28.4 7.792 29.536 7.792Q30.528 7.792 31.272 8.192Q32.016 8.592 32.464 9.2L32.464 7.936L34.72 7.936L34.72 16.8L32.464 16.8L32.464 15.504Q32.032 16.128 31.272 16.536Q30.512 16.944 29.52 16.944Q28.4 16.944 27.48 16.368Q26.56 15.792 26.024 14.744Q25.488 13.696 25.488 12.336ZM32.464 12.368Q32.464 11.552 32.144 10.968Q31.824 10.384 31.28 10.072Q30.736 9.76 30.112 9.76Q29.488 9.76 28.96 10.064Q28.432 10.368 28.104 10.952Q27.776 11.536 27.776 12.336Q27.776 13.136 28.104 13.736Q28.432 14.336 28.968 14.656Q29.504 14.976 30.112 14.976Q30.736 14.976 31.28 14.664Q31.824 14.352 32.144 13.768Q32.464 13.184 32.464 12.368ZM39.152 9.312Q39.584 8.608 40.28 8.208Q40.976 7.808 41.872 7.808L41.872 10.16L41.28 10.16Q40.224 10.16 39.688 10.656Q39.152 11.152 39.152 12.384L39.152 16.8L36.912 16.8L36.912 7.936L39.152 7.936L39.152 9.312ZM42.8 12.336Q42.8 10.992 43.336 9.952Q43.872 8.912 44.8 8.352Q45.728 7.792 46.864 7.792Q47.728 7.792 48.512 8.168Q49.296 8.544 49.76 9.168L49.76 4.96L52.032 4.96L52.032 16.8L49.76 16.8L49.76 15.488Q49.344 16.144 48.592 16.544Q47.84 16.944 46.848 16.944Q45.728 16.944 44.8 16.368Q43.872 15.792 43.336 14.744Q42.8 13.696 42.8 12.336ZM49.776 12.368Q49.776 11.552 49.456 10.968Q49.136 10.384 48.592 10.072Q48.048 9.76 47.424 9.76Q46.8 9.76 46.272 10.064Q45.744 10.368 45.416 10.952Q45.088 11.536 45.088 12.336Q45.088 13.136 45.416 13.736Q45.744 14.336 46.28 14.656Q46.816 14.976 47.424 14.976Q48.048 14.976 48.592 14.664Q49.136 14.352 49.456 13.768Q49.776 13.184 49.776 12.368Z" transform="translate(18.36 43)" fill="#FFFFFF" />
    </g>
    <path d="M1.94 17.84Q3.86 16.24 5 15.17Q6.14 14.1 6.9 12.94Q7.66 11.78 7.66 10.66Q7.66 9.64 7.18 9.06Q6.7 8.48 5.7 8.48Q4.7 8.48 4.16 9.15Q3.62 9.82 3.6 10.98L0.88 10.98Q0.96 8.58 2.31 7.34Q3.66 6.1 5.74 6.1Q8.02 6.1 9.24 7.31Q10.46 8.52 10.46 10.5Q10.46 12.06 9.62 13.48Q8.78 14.9 7.7 15.95Q6.62 17 4.88 18.48L10.78 18.48L10.78 20.8L0.9 20.8L0.9 18.72L1.94 17.84ZM12.54 13.52Q12.54 10.06 13.79 8.1Q15.04 6.14 17.94 6.14Q20.84 6.14 22.09 8.1Q23.34 10.06 23.34 13.52Q23.34 17 22.09 18.98C21.2567 20.3 19.8733 20.96 17.94 20.96C16.0067 20.96 14.6233 20.3 13.79 18.98Q12.54 17 12.54 13.52ZM20.58 13.52Q20.58 12.04 20.39 11.03Q20.2 10.02 19.63 9.38Q19.06 8.74 17.94 8.74Q16.82 8.74 16.25 9.38Q15.68 10.02 15.49 11.03Q15.3 12.04 15.3 13.52Q15.3 15.04 15.48 16.07Q15.66 17.1 16.24 17.73Q16.82 18.36 17.94 18.36Q19.06 18.36 19.64 17.73Q20.22 17.1 20.4 16.07Q20.58 15.04 20.58 13.52ZM26.34 17.84Q28.26 16.24 29.4 15.17Q30.54 14.1 31.3 12.94Q32.06 11.78 32.06 10.66Q32.06 9.64 31.58 9.06Q31.1 8.48 30.1 8.48Q29.1 8.48 28.56 9.15Q28.02 9.82 28 10.98L25.28 10.98Q25.36 8.58 26.71 7.34Q28.06 6.1 30.14 6.1Q32.42 6.1 33.64 7.31Q34.86 8.52 34.86 10.5Q34.86 12.06 34.02 13.48Q33.18 14.9 32.1 15.95Q31.02 17 29.28 18.48L35.18 18.48L35.18 20.8L25.3 20.8L25.3 18.72L26.34 17.84ZM37.82 17.84Q39.74 16.24 40.88 15.17Q42.02 14.1 42.78 12.94Q43.54 11.78 43.54 10.66Q43.54 9.64 43.06 9.06Q42.58 8.48 41.58 8.48Q40.58 8.48 40.04 9.15Q39.5 9.82 39.48 10.98L36.76 10.98Q36.84 8.58 38.19 7.34Q39.54 6.1 41.62 6.1Q43.9 6.1 45.12 7.31Q46.34 8.52 46.34 10.5Q46.34 12.06 45.5 13.48Q44.66 14.9 43.58 15.95Q42.5 17 40.76 18.48L46.66 18.48L46.66 20.8L36.78 20.8L36.78 18.72L37.82 17.84Z" transform="translate(97.719 113.832)" fill="#D44949" />
  </g>
</svg>