<?xml version="1.0" encoding="utf-8"?>
<svg width="243.434" height="200.703" viewBox="0 0 243.434 200.703" fill="none" xmlns="http://www.w3.org/2000/svg">
  <g>
    <g>
      <path d="M0 0L58.5551 0L43.8041 15.4243L58.5551 30.836L29.2776 30.836L29.2776 5.43283L1.14719 1.04909L1.14719 30.836L0 30.836L0 0L0 0Z" fill="#F6DCC4" fill-rule="evenodd" transform="translate(184.879 76.571)" />
      <path d="M58.5551 0L0 0L14.751 15.4243L0 30.836L29.4147 30.836L29.4147 5.72009L57.4079 1.04909L57.4079 30.836L58.5551 30.836L58.5551 0L58.5551 0Z" fill="#F6DCC4" fill-rule="evenodd" transform="translate(0 76.571)" />
      <path d="M139.455 0.00263596L139.455 120.259C139.455 123.406 137.672 126.379 134.704 128.227L69.7274 168.43L4.75074 128.227C1.77062 126.379 0 123.406 0 120.259L0 0C23.1178 5.08313 46.5722 7.65592 69.7274 7.65592C92.8786 7.65592 116.329 5.08402 139.455 0.00263596L139.455 0.00263596ZM139.457 0L139.457 1L140.457 0L139.457 0L139.457 0Z" fill="#EF983C" fill-rule="evenodd" transform="translate(51.996 14.612)" />
      <path d="M146.737 2.04824C146.737 0.786825 145.502 0 144.355 0C144.143 0 143.919 0.0249786 143.694 0.0749369C120.377 5.32043 96.723 7.96815 73.3683 7.96815C50.0137 7.96815 26.3597 5.30794 3.04247 0.0749369C2.81802 0.0249786 2.59358 0 2.3816 0C1.23445 0 0 0.786825 0 2.04824L0 123.681C0 127.828 2.3442 131.749 6.2595 134.172L73.3683 175.699L140.477 134.172C144.392 131.749 146.737 127.828 146.737 123.681L146.737 2.04824L146.737 2.04824ZM143.107 123.681C143.107 126.828 141.324 129.801 138.356 131.649L73.3797 171.865L8.40308 131.649C5.42295 129.813 3.65234 126.828 3.65234 123.681L3.65234 3.42212C26.7826 8.50525 50.237 11.0906 73.3922 11.0906C96.5474 11.0906 120.002 8.51773 143.132 3.42212L143.132 123.681L143.107 123.681L143.107 123.681Z" fill="#FFFFFF" fill-rule="evenodd" transform="translate(48.344 11.19)" />
      <path d="M157.423 0C156.114 0 154.779 0.137383 153.433 0.437123C131.101 5.45781 108.781 7.96815 86.4361 7.96815C64.0914 7.96815 41.7591 5.45781 19.4394 0.437123C18.1052 0.137378 16.771 0 15.4617 0C7.16975 0 0 5.73258 0 13.2386L0 134.872C0 142.628 4.35173 149.896 11.6711 154.442L86.4361 200.703L161.201 154.442C168.533 149.896 172.872 142.627 172.872 134.872L172.872 13.2386C172.872 5.72009 165.702 0 157.423 0L157.423 0ZM159.803 134.872C159.803 139.006 157.459 142.927 153.544 145.363L86.4348 186.889L19.3384 145.363C15.4106 142.94 13.0664 139.018 13.0664 134.872L13.0664 13.2386C13.0664 11.9772 14.3133 11.1904 15.4605 11.1904C15.6725 11.1904 15.8969 11.2154 16.1214 11.2653C39.4262 16.4983 63.0926 19.1586 86.4348 19.1586C109.777 19.1586 133.444 16.4983 156.748 11.2653C156.973 11.2154 157.21 11.1904 157.422 11.1904C158.569 11.1904 159.803 11.9772 159.803 13.2386L159.803 134.872L159.803 134.872Z" fill="#EF983C" fill-rule="evenodd" transform="translate(35.289 0)" />
      <g transform="translate(29.961 89.186)">
        <path d="M172.872 0L172.872 34.358C168.72 36.7809 164.356 39.004 159.804 41.0398C138.657 50.5691 113.469 56.1018 86.4485 56.1018C59.4279 56.1018 34.2278 50.5691 13.0677 41.0398C8.51642 39.004 4.15222 36.7685 0 34.358L0 0C4.16469 2.41043 8.51642 4.63352 13.0677 6.68176C34.2278 16.2111 59.403 21.7438 86.4485 21.7438C113.494 21.7438 138.657 16.2111 159.804 6.68176C164.356 4.63352 168.72 2.39794 172.872 0L172.872 0Z" fill="#000000" fill-rule="evenodd" transform="translate(5.324 3.46)" />
        <path d="M1 1C0.67442 0.800007 0.32558 0.599996 0 0.400002L0 0C0.32558 0.333339 0.67442 0.666677 1 1L1 1Z" fill="#000000" fill-rule="evenodd" />
        <path d="M1 0L1 0.400002C0.674408 0.599996 0.325592 0.800007 0 1C0.325592 0.644434 0.674408 0.311111 1 0L1 0Z" fill="#000000" fill-rule="evenodd" transform="translate(182.973 0)" />
      </g>
      <path d="M183.508 0L183.508 34.3705C159.343 49.8697 127.135 59.3365 91.7603 59.3365C56.3854 59.3365 24.1652 49.8697 0 34.3705L0 1.52588e-05C0.174566 0.112419 0.349134 0.224823 0.523701 0.337227C24.6265 15.6366 56.6223 24.9786 91.7479 24.9786C126.873 24.9786 158.869 15.6491 182.972 0.337234C183.147 0.224838 183.321 0.112427 183.496 3.05176e-05L183.508 0L183.508 0Z" fill="#F6DCC4" fill-rule="evenodd" transform="translate(29.961 82.879)" />
      <path d="M1 1C0.666666 0.804352 0.333334 0.608696 0 0.413048L0 0C0.333334 0.326088 0.666666 0.652184 1 1L1 1Z" fill="#F6DCC4" fill-rule="evenodd" transform="translate(29.961 82.642)" />
      <path d="M1 0L1 0.413048C0.666672 0.608696 0.333328 0.804352 0 1C0.333328 0.673912 0.666672 0.347816 1 0L1 0Z" fill="#F6DCC4" fill-rule="evenodd" transform="translate(212.949 82.642)" />
    </g>
    <path d="M1.94 17.84Q3.86 16.24 5 15.17Q6.14 14.1 6.9 12.94Q7.66 11.78 7.66 10.66Q7.66 9.64 7.18 9.06Q6.7 8.48 5.7 8.48Q4.7 8.48 4.16 9.15Q3.62 9.82 3.6 10.98L0.88 10.98Q0.96 8.58 2.31 7.34Q3.66 6.1 5.74 6.1Q8.02 6.1 9.24 7.31Q10.46 8.52 10.46 10.5Q10.46 12.06 9.62 13.48Q8.78 14.9 7.7 15.95Q6.62 17 4.88 18.48L10.78 18.48L10.78 20.8L0.9 20.8L0.9 18.72L1.94 17.84ZM12.54 13.52Q12.54 10.06 13.79 8.1Q15.04 6.14 17.94 6.14Q20.84 6.14 22.09 8.1Q23.34 10.06 23.34 13.52Q23.34 17 22.09 18.98C21.2567 20.3 19.8733 20.96 17.94 20.96C16.0067 20.96 14.6233 20.3 13.79 18.98Q12.54 17 12.54 13.52ZM20.58 13.52Q20.58 12.04 20.39 11.03Q20.2 10.02 19.63 9.38Q19.06 8.74 17.94 8.74Q16.82 8.74 16.25 9.38Q15.68 10.02 15.49 11.03Q15.3 12.04 15.3 13.52Q15.3 15.04 15.48 16.07Q15.66 17.1 16.24 17.73Q16.82 18.36 17.94 18.36Q19.06 18.36 19.64 17.73Q20.22 17.1 20.4 16.07Q20.58 15.04 20.58 13.52ZM26.34 17.84Q28.26 16.24 29.4 15.17Q30.54 14.1 31.3 12.94Q32.06 11.78 32.06 10.66Q32.06 9.64 31.58 9.06Q31.1 8.48 30.1 8.48Q29.1 8.48 28.56 9.15Q28.02 9.82 28 10.98L25.28 10.98Q25.36 8.58 26.71 7.34Q28.06 6.1 30.14 6.1Q32.42 6.1 33.64 7.31Q34.86 8.52 34.86 10.5Q34.86 12.06 34.02 13.48Q33.18 14.9 32.1 15.95Q31.02 17 29.28 18.48L35.18 18.48L35.18 20.8L25.3 20.8L25.3 18.72L26.34 17.84ZM37.82 17.84Q39.74 16.24 40.88 15.17Q42.02 14.1 42.78 12.94Q43.54 11.78 43.54 10.66Q43.54 9.64 43.06 9.06Q42.58 8.48 41.58 8.48Q40.58 8.48 40.04 9.15Q39.5 9.82 39.48 10.98L36.76 10.98Q36.84 8.58 38.19 7.34Q39.54 6.1 41.62 6.1Q43.9 6.1 45.12 7.31Q46.34 8.52 46.34 10.5Q46.34 12.06 45.5 13.48Q44.66 14.9 43.58 15.95Q42.5 17 40.76 18.48L46.66 18.48L46.66 20.8L36.78 20.8L36.78 18.72L37.82 17.84Z" transform="translate(97.719 113.832)" fill="#DC7D19" />
    <g transform="translate(64.719 33.832)">
      <path d="M8.704 5.632L8.704 7.44L5.728 7.44L5.728 16.8L3.488 16.8L3.488 7.44L0.512 7.44L0.512 5.632L8.704 5.632ZM15.328 7.808Q16.336 7.808 17.12 8.248Q17.904 8.688 18.344 9.544Q18.784 10.4 18.784 11.6L18.784 16.8L16.544 16.8L16.544 11.904Q16.544 10.848 16.016 10.28Q15.488 9.712 14.576 9.712Q13.648 9.712 13.112 10.28Q12.576 10.848 12.576 11.904L12.576 16.8L10.336 16.8L10.336 4.96L12.576 4.96L12.576 9.04Q13.008 8.464 13.728 8.136Q14.448 7.808 15.328 7.808ZM29.152 12.176Q29.152 12.656 29.088 13.04L22.608 13.04Q22.688 14 23.28 14.544Q23.872 15.088 24.736 15.088Q25.984 15.088 26.512 14.016L28.928 14.016Q28.544 15.296 27.456 16.12Q26.368 16.944 24.784 16.944Q23.504 16.944 22.488 16.376Q21.472 15.808 20.904 14.768Q20.336 13.728 20.336 12.368Q20.336 10.992 20.896 9.952Q21.456 8.912 22.464 8.352Q23.472 7.792 24.784 7.792Q26.048 7.792 27.048 8.336Q28.048 8.88 28.6 9.88Q29.152 10.88 29.152 12.176ZM26.832 11.536Q26.816 10.672 26.208 10.152Q25.6 9.632 24.72 9.632Q23.888 9.632 23.32 10.136Q22.752 10.64 22.624 11.536L26.832 11.536ZM36.832 7.44L36.832 10.24L40.592 10.24L40.592 12.016L36.832 12.016L36.832 14.976L41.072 14.976L41.072 16.8L34.592 16.8L34.592 5.616L41.072 5.616L41.072 7.44L36.832 7.44ZM42.528 12.368Q42.528 10.992 43.088 9.96Q43.648 8.928 44.64 8.36Q45.632 7.792 46.912 7.792Q48.56 7.792 49.64 8.616Q50.72 9.44 51.088 10.928L48.672 10.928Q48.48 10.352 48.024 10.024Q47.568 9.696 46.896 9.696Q45.936 9.696 45.376 10.392Q44.816 11.088 44.816 12.368Q44.816 13.632 45.376 14.328Q45.936 15.024 46.896 15.024Q48.256 15.024 48.672 13.808L51.088 13.808Q50.72 15.248 49.632 16.096Q48.544 16.944 46.912 16.944Q45.632 16.944 44.64 16.376Q43.648 15.808 43.088 14.776Q42.528 13.744 42.528 12.368ZM56.672 16.944Q55.392 16.944 54.368 16.376Q53.344 15.808 52.76 14.768Q52.176 13.728 52.176 12.368Q52.176 11.008 52.776 9.968Q53.376 8.928 54.416 8.36Q55.456 7.792 56.736 7.792Q58.016 7.792 59.056 8.36Q60.096 8.928 60.696 9.968Q61.296 11.008 61.296 12.368Q61.296 13.728 60.68 14.768Q60.064 15.808 59.016 16.376Q57.968 16.944 56.672 16.944ZM56.672 14.992Q57.28 14.992 57.816 14.696Q58.352 14.4 58.672 13.808Q58.992 13.216 58.992 12.368Q58.992 11.104 58.328 10.424Q57.664 9.744 56.704 9.744Q55.744 9.744 55.096 10.424Q54.448 11.104 54.448 12.368Q54.448 13.632 55.08 14.312Q55.712 14.992 56.672 14.992ZM67.856 7.808Q69.44 7.808 70.416 8.808Q71.392 9.808 71.392 11.6L71.392 16.8L69.152 16.8L69.152 11.904Q69.152 10.848 68.624 10.28Q68.096 9.712 67.184 9.712Q66.256 9.712 65.72 10.28Q65.184 10.848 65.184 11.904L65.184 16.8L62.944 16.8L62.944 7.936L65.184 7.936L65.184 9.04Q65.632 8.464 66.328 8.136Q67.024 7.808 67.856 7.808ZM77.456 16.944Q76.176 16.944 75.152 16.376Q74.128 15.808 73.544 14.768Q72.96 13.728 72.96 12.368Q72.96 11.008 73.56 9.968Q74.16 8.928 75.2 8.36Q76.24 7.792 77.52 7.792Q78.8 7.792 79.84 8.36Q80.88 8.928 81.48 9.968Q82.08 11.008 82.08 12.368Q82.08 13.728 81.464 14.768Q80.848 15.808 79.8 16.376Q78.752 16.944 77.456 16.944ZM77.456 14.992Q78.064 14.992 78.6 14.696Q79.136 14.4 79.456 13.808Q79.776 13.216 79.776 12.368Q79.776 11.104 79.112 10.424Q78.448 9.744 77.488 9.744Q76.528 9.744 75.88 10.424Q75.232 11.104 75.232 12.368Q75.232 13.632 75.864 14.312Q76.496 14.992 77.456 14.992ZM94.736 7.808Q96.368 7.808 97.368 8.808Q98.368 9.808 98.368 11.6L98.368 16.8L96.128 16.8L96.128 11.904Q96.128 10.864 95.6 10.312Q95.072 9.76 94.16 9.76Q93.248 9.76 92.712 10.312Q92.176 10.864 92.176 11.904L92.176 16.8L89.936 16.8L89.936 11.904Q89.936 10.864 89.408 10.312Q88.88 9.76 87.968 9.76Q87.04 9.76 86.504 10.312Q85.968 10.864 85.968 11.904L85.968 16.8L83.728 16.8L83.728 7.936L85.968 7.936L85.968 9.008Q86.4 8.448 87.08 8.128Q87.76 7.808 88.576 7.808Q89.616 7.808 90.432 8.248Q91.248 8.688 91.696 9.504Q92.128 8.736 92.952 8.272Q93.776 7.808 94.736 7.808ZM101.632 6.88Q101.04 6.88 100.648 6.504Q100.256 6.128 100.256 5.568Q100.256 5.008 100.648 4.632Q101.04 4.256 101.632 4.256Q102.224 4.256 102.616 4.632Q103.008 5.008 103.008 5.568Q103.008 6.128 102.616 6.504Q102.224 6.88 101.632 6.88ZM102.736 7.936L102.736 16.8L100.496 16.8L100.496 7.936L102.736 7.936ZM104.368 12.368Q104.368 10.992 104.928 9.96Q105.488 8.928 106.48 8.36Q107.472 7.792 108.752 7.792Q110.4 7.792 111.48 8.616Q112.56 9.44 112.928 10.928L110.512 10.928Q110.32 10.352 109.864 10.024Q109.408 9.696 108.736 9.696Q107.776 9.696 107.216 10.392Q106.656 11.088 106.656 12.368Q106.656 13.632 107.216 14.328Q107.776 15.024 108.736 15.024Q110.096 15.024 110.512 13.808L112.928 13.808Q112.56 15.248 111.472 16.096Q110.384 16.944 108.752 16.944Q107.472 16.944 106.48 16.376Q105.488 15.808 104.928 14.776Q104.368 13.744 104.368 12.368Z" transform="translate(0 -1)" fill="#FFFFFF" />
      <path d="M8.704 5.632L8.704 7.44L5.728 7.44L5.728 16.8L3.488 16.8L3.488 7.44L0.512 7.44L0.512 5.632L8.704 5.632ZM11.472 6.88Q10.88 6.88 10.488 6.504Q10.096 6.128 10.096 5.568Q10.096 5.008 10.488 4.632Q10.88 4.256 11.472 4.256Q12.064 4.256 12.456 4.632Q12.848 5.008 12.848 5.568Q12.848 6.128 12.456 6.504Q12.064 6.88 11.472 6.88ZM12.576 7.936L12.576 16.8L10.336 16.8L10.336 7.936L12.576 7.936ZM25.792 7.808Q27.424 7.808 28.424 8.808Q29.424 9.808 29.424 11.6L29.424 16.8L27.184 16.8L27.184 11.904Q27.184 10.864 26.656 10.312Q26.128 9.76 25.216 9.76Q24.304 9.76 23.768 10.312Q23.232 10.864 23.232 11.904L23.232 16.8L20.992 16.8L20.992 11.904Q20.992 10.864 20.464 10.312Q19.936 9.76 19.024 9.76Q18.096 9.76 17.56 10.312Q17.024 10.864 17.024 11.904L17.024 16.8L14.784 16.8L14.784 7.936L17.024 7.936L17.024 9.008Q17.456 8.448 18.136 8.128Q18.816 7.808 19.632 7.808Q20.672 7.808 21.488 8.248Q22.304 8.688 22.752 9.504Q23.184 8.736 24.008 8.272Q24.832 7.808 25.792 7.808ZM39.792 12.176Q39.792 12.656 39.728 13.04L33.248 13.04Q33.328 14 33.92 14.544Q34.512 15.088 35.376 15.088Q36.624 15.088 37.152 14.016L39.568 14.016Q39.184 15.296 38.096 16.12Q37.008 16.944 35.424 16.944Q34.144 16.944 33.128 16.376Q32.112 15.808 31.544 14.768Q30.976 13.728 30.976 12.368Q30.976 10.992 31.536 9.952Q32.096 8.912 33.104 8.352Q34.112 7.792 35.424 7.792Q36.688 7.792 37.688 8.336Q38.688 8.88 39.24 9.88Q39.792 10.88 39.792 12.176ZM37.472 11.536Q37.456 10.672 36.848 10.152Q36.24 9.632 35.36 9.632Q34.528 9.632 33.96 10.136Q33.392 10.64 33.264 11.536L37.472 11.536ZM44.816 16.944Q43.728 16.944 42.864 16.552Q42 16.16 41.496 15.488Q40.992 14.816 40.944 14L43.2 14Q43.264 14.512 43.704 14.848Q44.144 15.184 44.8 15.184Q45.44 15.184 45.8 14.928Q46.16 14.672 46.16 14.272Q46.16 13.84 45.72 13.624Q45.28 13.408 44.32 13.152Q43.328 12.912 42.696 12.656Q42.064 12.4 41.608 11.872Q41.152 11.344 41.152 10.448Q41.152 9.712 41.576 9.104Q42 8.496 42.792 8.144Q43.584 7.792 44.656 7.792Q46.24 7.792 47.184 8.584Q48.128 9.376 48.224 10.72L46.08 10.72Q46.032 10.192 45.64 9.88Q45.248 9.568 44.592 9.568Q43.984 9.568 43.656 9.792Q43.328 10.016 43.328 10.416Q43.328 10.864 43.776 11.096Q44.224 11.328 45.168 11.568Q46.128 11.808 46.752 12.064Q47.376 12.32 47.832 12.856Q48.288 13.392 48.304 14.272Q48.304 15.04 47.88 15.648Q47.456 16.256 46.664 16.6Q45.872 16.944 44.816 16.944Z" transform="translate(32.216 21)" fill="#FFFFFF" />
      <path d="M0.528 12.336Q0.528 10.992 1.064 9.952Q1.6 8.912 2.52 8.352Q3.44 7.792 4.576 7.792Q5.568 7.792 6.312 8.192Q7.056 8.592 7.504 9.2L7.504 7.936L9.76 7.936L9.76 16.8L7.504 16.8L7.504 15.504Q7.072 16.128 6.312 16.536Q5.552 16.944 4.56 16.944Q3.44 16.944 2.52 16.368Q1.6 15.792 1.064 14.744Q0.528 13.696 0.528 12.336ZM7.504 12.368Q7.504 11.552 7.184 10.968Q6.864 10.384 6.32 10.072Q5.776 9.76 5.152 9.76Q4.528 9.76 4 10.064Q3.472 10.368 3.144 10.952Q2.816 11.536 2.816 12.336Q2.816 13.136 3.144 13.736Q3.472 14.336 4.008 14.656Q4.544 14.976 5.152 14.976Q5.776 14.976 6.32 14.664Q6.864 14.352 7.184 13.768Q7.504 13.184 7.504 12.368ZM24.24 7.936L21.648 16.8L19.232 16.8L17.616 10.608L16 16.8L13.568 16.8L10.96 7.936L13.232 7.936L14.8 14.688L16.496 7.936L18.864 7.936L20.528 14.672L22.096 7.936L24.24 7.936ZM24.88 12.336Q24.88 10.992 25.416 9.952Q25.952 8.912 26.872 8.352Q27.792 7.792 28.928 7.792Q29.92 7.792 30.664 8.192Q31.408 8.592 31.856 9.2L31.856 7.936L34.112 7.936L34.112 16.8L31.856 16.8L31.856 15.504Q31.424 16.128 30.664 16.536Q29.904 16.944 28.912 16.944Q27.792 16.944 26.872 16.368Q25.952 15.792 25.416 14.744Q24.88 13.696 24.88 12.336ZM31.856 12.368Q31.856 11.552 31.536 10.968Q31.216 10.384 30.672 10.072Q30.128 9.76 29.504 9.76Q28.88 9.76 28.352 10.064Q27.824 10.368 27.496 10.952Q27.168 11.536 27.168 12.336Q27.168 13.136 27.496 13.736Q27.824 14.336 28.36 14.656Q28.896 14.976 29.504 14.976Q30.128 14.976 30.672 14.664Q31.216 14.352 31.536 13.768Q31.856 13.184 31.856 12.368ZM38.544 9.312Q38.976 8.608 39.672 8.208Q40.368 7.808 41.264 7.808L41.264 10.16L40.672 10.16Q39.616 10.16 39.08 10.656Q38.544 11.152 38.544 12.384L38.544 16.8L36.304 16.8L36.304 7.936L38.544 7.936L38.544 9.312ZM42.192 12.336Q42.192 10.992 42.728 9.952Q43.264 8.912 44.192 8.352Q45.12 7.792 46.256 7.792Q47.12 7.792 47.904 8.168Q48.688 8.544 49.152 9.168L49.152 4.96L51.424 4.96L51.424 16.8L49.152 16.8L49.152 15.488Q48.736 16.144 47.984 16.544Q47.232 16.944 46.24 16.944Q45.12 16.944 44.192 16.368Q43.264 15.792 42.728 14.744Q42.192 13.696 42.192 12.336ZM49.168 12.368Q49.168 11.552 48.848 10.968Q48.528 10.384 47.984 10.072Q47.44 9.76 46.816 9.76Q46.192 9.76 45.664 10.064Q45.136 10.368 44.808 10.952Q44.48 11.536 44.48 12.336Q44.48 13.136 44.808 13.736Q45.136 14.336 45.672 14.656Q46.208 14.976 46.816 14.976Q47.44 14.976 47.984 14.664Q48.528 14.352 48.848 13.768Q49.168 13.184 49.168 12.368Z" transform="translate(30.48 43)" fill="#FFFFFF" />
    </g>
  </g>
</svg>