<svg width="21" height="22" viewBox="0 0 21 22" fill="none" xmlns="http://www.w3.org/2000/svg">
<g id="Frame">
<g id="_x33_9_x2C__Handbag_x2C__woman_bag_x2C__purse_x2C__accessories_x2C_clothes">
<g id="Group">
<g id="Group_2">
<path id="Path" fill-rule="evenodd" clip-rule="evenodd" d="M20.5488 8.75244V16.1353C20.5488 18.5092 18.6244 20.4337 16.2504 20.4337H4.74961C2.37562 20.4337 0.451172 18.5092 0.451172 16.1353V8.75244L20.5488 8.75244Z" fill="#946044"/>
<path id="Path_2" fill-rule="evenodd" clip-rule="evenodd" d="M18.8098 6.07813C18.8029 6.07813 16.5999 6.07813 2.19023 6.07813C1.22965 6.07813 0.451172 6.8566 0.451172 7.81719V8.75234C0.451172 10.7761 1.84939 12.4729 3.73242 12.9294C4.44778 13.0191 5.28253 13.0528 6.1934 13.0508H14.8066C15.7207 13.0422 16.5453 13.0032 17.2676 12.9294C19.1506 12.4729 20.5488 10.7761 20.5488 8.75234V7.81719C20.5488 6.8566 19.7703 6.07812 18.8098 6.07812V6.07813Z" fill="#F1D0A4"/>
<path id="Path_3" fill-rule="evenodd" clip-rule="evenodd" d="M17.2676 14.6914C17.2676 15.371 16.7167 15.9219 16.0371 15.9219C15.3575 15.9219 14.8066 15.371 14.8066 14.6914C14.8066 14.1059 14.8066 12.4046 14.8066 11.8203H17.2676V14.6914Z" fill="#EDBB87"/>
<path id="Path_4" fill-rule="evenodd" clip-rule="evenodd" d="M16.0365 8.53906C16.0365 9.10549 15.5776 9.56445 15.0111 9.56445C14.4441 9.56445 13.9858 9.10508 13.9858 8.53906V7.10352C13.9858 5.1709 12.4176 3.61719 10.4994 3.61719C8.57132 3.61719 7.0131 5.18152 7.0131 7.10352V8.53906C7.0131 9.10549 6.55413 9.56445 5.98771 9.56445C5.42071 9.56445 4.96232 9.10508 4.96232 8.53906C4.98057 7.34042 4.90994 6.85919 5.05747 6.07813C5.53777 3.51014 7.79157 1.56641 10.4994 1.56641C13.1958 1.56641 15.46 3.49988 15.9414 6.07813C16.0887 6.85812 16.0182 7.33571 16.0365 8.53906V8.53906Z" fill="#AA745A"/>
<path id="Path_5" fill-rule="evenodd" clip-rule="evenodd" d="M6.19336 14.6914C6.19336 15.371 5.64252 15.9219 4.96289 15.9219C4.28326 15.9219 3.73242 15.371 3.73242 14.6914C3.73242 14.0322 3.73242 12.455 3.73242 11.8203H6.19336V14.6914Z" fill="#EDBB87"/>
</g>
<path id="Shape" fill-rule="evenodd" clip-rule="evenodd" d="M18.8098 5.66797H16.2717C15.6278 3.07992 13.2845 1.15625 10.5 1.15625C7.71553 1.15625 5.37223 3.07992 4.72832 5.66797H2.19023C1.00517 5.66797 0.0410156 6.63212 0.0410156 7.81719V16.1352C0.0410156 18.7315 2.15328 20.8438 4.74961 20.8438H16.2504C18.8467 20.8438 20.959 18.7315 20.959 16.1352V7.81719C20.959 6.63212 19.9948 5.66797 18.8098 5.66797ZM10.5 1.97656C13.327 1.97656 15.627 4.27651 15.627 7.10352V8.53906C15.627 8.8783 15.351 9.1543 15.0117 9.1543C14.6725 9.1543 14.3965 8.8783 14.3965 8.53906V7.10352C14.3965 4.95368 12.6472 3.20703 10.5 3.20703C8.35538 3.20703 6.60352 4.95118 6.60352 7.10352V8.53906C6.60352 8.8783 6.32752 9.1543 5.98828 9.1543C5.64904 9.1543 5.37305 8.8783 5.37305 8.53906V7.10352C5.37305 4.27651 7.673 1.97656 10.5 1.97656ZM7.78125 5.66797H13.2203C12.7036 4.69319 11.6787 4.02734 10.5007 4.02734C9.32278 4.02734 8.29788 4.69319 7.78125 5.66797ZM0.861328 7.81719C0.861328 7.08444 1.45749 6.48828 2.19023 6.48828H4.5844C4.5501 6.82048 4.55097 7.03736 4.55299 7.5393V7.53934V7.53939V7.53945C4.55399 7.78718 4.55527 8.10434 4.55273 8.53906C4.55273 9.33062 5.19672 9.97461 5.98828 9.97461C6.77984 9.97461 7.42383 9.33062 7.42383 8.53906C7.42884 8.10581 7.42633 7.78857 7.42438 7.54018V7.54017V7.54015V7.54014V7.54014C7.42042 7.03792 7.41868 6.81724 7.48572 6.48828H13.5142C13.5813 6.81725 13.5795 7.03653 13.5756 7.53858V7.53859C13.5736 7.78701 13.5711 8.10465 13.5761 8.53906C13.5761 9.33062 14.2201 9.97461 15.0117 9.97461C15.8032 9.97461 16.4472 9.33062 16.4472 8.53906C16.4446 8.09593 16.4459 7.77561 16.4469 7.52729V7.52726V7.52724V7.52721V7.5272V7.52718V7.52717C16.4489 7.02724 16.4497 6.81918 16.4156 6.48828H18.8098C19.5425 6.48828 20.1387 7.08444 20.1387 7.81719V8.75234C20.1387 10.3735 19.1496 11.7939 17.6777 12.3704V11.8203C17.6777 11.5938 17.4941 11.4102 17.2676 11.4102H14.8066C14.5802 11.4102 14.3965 11.5938 14.3965 11.8203V12.6406H6.60352V11.8203C6.60352 11.5938 6.41985 11.4102 6.19336 11.4102H3.73242C3.50593 11.4102 3.32227 11.5938 3.32227 11.8203V12.3704C1.85038 11.7939 0.861328 10.3735 0.861328 8.75234V7.81719ZM16.8574 12.2305H15.2168V14.6914C15.2168 15.1437 15.5848 15.5117 16.0371 15.5117C16.4894 15.5117 16.8574 15.1437 16.8574 14.6914V12.2305ZM5.7832 14.6914C5.7832 15.1437 5.41521 15.5117 4.96289 15.5117C4.51057 15.5117 4.14258 15.1437 4.14258 14.6914V12.2305H5.7832V14.6914ZM16.2504 20.0233C18.3944 20.0233 20.1387 18.279 20.1387 16.135V11.4087C19.5466 12.2718 18.6774 12.9209 17.6777 13.2391V14.6913C17.6777 15.5959 16.9417 16.3319 16.0371 16.3319C15.1325 16.3319 14.3965 15.5959 14.3965 14.6913V13.4608H6.60352V14.6913C6.60352 15.5959 5.86753 16.3319 4.96289 16.3319C4.05825 16.3319 3.32227 15.5959 3.32227 14.6913V13.2391C2.32304 12.921 1.45363 12.2723 0.861328 11.409V16.135C0.861328 18.279 2.6056 20.0233 4.74961 20.0233H16.2504Z" fill="black"/>
</g>
</g>
</g>
</svg>
