<svg width="24" height="25" viewBox="0 0 24 25" fill="none" xmlns="http://www.w3.org/2000/svg">
<g id="Frame">
<path id="Path" fill-rule="evenodd" clip-rule="evenodd" d="M0.515625 4.30288V3.20076C0.515625 2.89641 0.623227 2.63664 0.83843 2.42144C1.05363 2.20623 1.31341 2.09863 1.61775 2.09863H20.6479C20.9522 2.09863 21.212 2.20623 21.4272 2.42144C21.6424 2.63664 21.75 2.89641 21.75 3.20076V17.9856C21.75 18.2899 21.6424 18.5497 21.4272 18.7649C21.212 18.9801 20.9522 19.0877 20.6479 19.0877H1.61775C1.31341 19.0877 1.05363 18.9801 0.83843 18.7649C0.623227 18.5497 0.515625 18.2899 0.515625 17.9856V4.30288Z" fill="#B6DBFF"/>
<path id="Path_2" fill-rule="evenodd" clip-rule="evenodd" d="M0.515625 4.30288V3.20076C0.515625 2.89641 0.623227 2.63664 0.83843 2.42144C1.05363 2.20623 1.31341 2.09863 1.61775 2.09863H19.6078C19.9122 2.09863 20.1719 2.20623 20.3871 2.42144C20.6023 2.63664 20.7099 2.89641 20.7099 3.20076V17.9856C20.7099 18.2899 20.6023 18.5497 20.3871 18.7649C20.1719 18.9801 19.9122 19.0877 19.6078 19.0877H1.61775C1.31341 19.0877 1.05363 18.9801 0.83843 18.7649C0.623227 18.5497 0.515625 18.2899 0.515625 17.9856V4.30288Z" fill="#E3F1FF"/>
<path id="Path_3" fill-rule="evenodd" clip-rule="evenodd" d="M1.6178 2.09863H20.6479C21.2541 2.09863 21.75 2.59462 21.75 3.2008V5.07135H0.515625V3.2008C0.515625 2.59462 1.01161 2.09863 1.6178 2.09863L1.6178 2.09863Z" fill="#4EB1FC"/>
<path id="Path_4" fill-rule="evenodd" clip-rule="evenodd" d="M1.6178 2.09863H19.6078C20.214 2.09863 20.7099 2.59457 20.7099 3.20076V5.07135H0.515625V3.2008C0.515625 2.59462 1.01161 2.09863 1.6178 2.09863L1.6178 2.09863Z" fill="#85CAFF"/>
<circle id="Oval" cx="3.06042" cy="3.58483" r="0.454947" fill="white"/>
<circle id="Oval_2" cx="5.02338" cy="3.5849" r="0.455016" fill="white"/>
<g id="Group">
<path id="Shape" fill-rule="evenodd" clip-rule="evenodd" d="M14.8679 3.91299H13.8281C13.6467 3.91299 13.5 3.76632 13.5 3.58496C13.5 3.4036 13.6466 3.25684 13.8281 3.25684H14.8679C15.0491 3.25684 15.1959 3.40355 15.1959 3.58496C15.1959 3.76637 15.0491 3.91299 14.8679 3.91299V3.91299ZM17.2511 3.91299H16.2111C16.0301 3.91299 15.8828 3.76632 15.8828 3.58496C15.8828 3.4036 16.0301 3.25684 16.2111 3.25684H17.2511C17.4321 3.25684 17.5794 3.40355 17.5794 3.58496C17.5794 3.76637 17.4321 3.91299 17.2511 3.91299V3.91299ZM19.6335 3.91299H18.5937C18.4125 3.91299 18.2656 3.76632 18.2656 3.58496C18.2656 3.4036 18.4125 3.25684 18.5937 3.25684H19.6335C19.8149 3.25684 19.9616 3.40355 19.9616 3.58496C19.9616 3.76637 19.8149 3.91299 19.6335 3.91299V3.91299Z" fill="white"/>
<path id="Path_5" fill-rule="evenodd" clip-rule="evenodd" d="M12.0939 21.1747C11.9142 21.1959 11.7512 21.0674 11.73 20.8876C11.7087 20.7077 11.8373 20.5448 12.0171 20.5235L13.2759 20.3724C13.4904 20.3471 13.6686 20.5325 13.639 20.7436L13.4888 21.9953C13.4676 22.1751 13.3046 22.3037 13.1248 22.2824C12.945 22.2612 12.8165 22.0982 12.8377 21.9184L12.8759 21.6004L11.8081 22.6682C11.68 22.7963 11.4722 22.7963 11.3441 22.6682C11.216 22.5401 11.216 22.3323 11.3441 22.2042L12.4118 21.1365L12.0939 21.1747L12.0939 21.1747Z" fill="#909CD1"/>
<path id="Shape_2" fill-rule="evenodd" clip-rule="evenodd" d="M2.61914 17.5435C2.43792 17.5435 2.29102 17.3966 2.29102 17.2153C2.29102 17.0341 2.43792 16.8872 2.61914 16.8872H10.9208C11.102 16.8872 11.2489 17.0341 11.2489 17.2153C11.2489 17.3966 11.102 17.5435 10.9208 17.5435H2.61914ZM19.6502 8.11572C19.8314 8.11572 19.9783 8.26263 19.9783 8.44385C19.9783 8.62507 19.8314 8.77197 19.6502 8.77197H13.7734C13.5922 8.77197 13.4453 8.62507 13.4453 8.44385C13.4453 8.26263 13.5922 8.11572 13.7734 8.11572H19.6502ZM19.6502 6.39307C19.8314 6.39307 19.9783 6.53997 19.9783 6.72119C19.9783 6.90241 19.8314 7.04932 19.6502 7.04932H13.7734C13.5922 7.04932 13.4453 6.90241 13.4453 6.72119C13.4453 6.53997 13.5922 6.39307 13.7734 6.39307L19.6502 6.39307ZM2.61914 14.0981C2.43792 14.0981 2.29102 13.9512 2.29102 13.77C2.29102 13.5888 2.43792 13.4419 2.61914 13.4419H11.6357C11.817 13.4419 11.9639 13.5888 11.9639 13.77C11.9639 13.9512 11.817 14.0981 11.6357 14.0981H2.61914ZM2.61914 15.8208C2.43792 15.8208 2.29102 15.6739 2.29102 15.4927C2.29102 15.3115 2.43792 15.1646 2.61914 15.1646H10.9208C11.102 15.1646 11.2489 15.3115 11.2489 15.4927C11.2489 15.6739 11.102 15.8208 10.9208 15.8208H2.61914Z" fill="#909CD1"/>
</g>
<path id="Path_6" fill-rule="evenodd" clip-rule="evenodd" d="M2.61914 7.99029V7.35574C2.61914 7.18051 2.68109 7.03095 2.805 6.90705C2.9289 6.78314 3.07846 6.72119 3.25369 6.72119H7.63669C7.81191 6.72119 7.96148 6.78314 8.08538 6.90705C8.20928 7.03095 8.27123 7.18051 8.27123 7.35574V11.7387C8.27123 11.914 8.20928 12.0635 8.08538 12.1874C7.96148 12.3113 7.81191 12.3733 7.63669 12.3733H3.25369C3.07846 12.3733 2.9289 12.3113 2.805 12.1874C2.68109 12.0635 2.61914 11.914 2.61914 11.7387V7.99029Z" fill="#FCDB35"/>
<path id="Path_7" fill-rule="evenodd" clip-rule="evenodd" d="M2.61914 7.99029V7.35574C2.61914 7.18051 2.68109 7.03095 2.805 6.90705C2.9289 6.78314 3.07846 6.72119 3.25369 6.72119H7.1445C7.31973 6.72119 7.46929 6.78314 7.59319 6.90705C7.7171 7.03095 7.77905 7.18051 7.77905 7.35574V11.7387C7.77905 11.914 7.7171 12.0635 7.59319 12.1874C7.46929 12.3113 7.31973 12.3733 7.1445 12.3733H3.25369C3.07846 12.3733 2.9289 12.3113 2.805 12.1874C2.68109 12.0635 2.61914 11.914 2.61914 11.7387V7.99029Z" fill="#FFEB87"/>
<path id="Path_8" fill-rule="evenodd" clip-rule="evenodd" d="M20.4944 11.9779L21.1172 11.5602C21.2186 11.4922 21.3508 11.5051 21.4372 11.5914L22.4011 12.5554C22.4875 12.6417 22.5004 12.7739 22.4324 12.8753L22.0147 13.4982L22.5445 14.777L23.2801 14.922C23.4 14.9456 23.4843 15.0482 23.4843 15.1703V16.5336C23.4843 16.6557 23.4 16.7583 23.2801 16.782L22.5445 16.927L22.0147 18.2057L22.4324 18.8286C22.5004 18.93 22.4875 19.0622 22.4011 19.1485L21.4372 20.1125C21.3508 20.1988 21.2187 20.2118 21.1172 20.1437L20.4944 19.726L19.2156 20.2558L19.0706 20.9915C19.047 21.1113 18.9444 21.1957 18.8222 21.1957H17.459C17.3369 21.1957 17.2342 21.1113 17.2106 20.9915L17.0656 20.2558L15.7868 19.726L15.164 20.1437C15.0625 20.2118 14.9304 20.1989 14.844 20.1125L13.88 19.1485C13.7937 19.0621 13.7807 18.93 13.8488 18.8286L14.2665 18.2057L13.7367 16.927L13.0011 16.782C12.8812 16.7583 12.7969 16.6557 12.7969 16.5336V15.1703C12.7969 15.0482 12.8812 14.9456 13.0011 14.922L13.7367 14.777L14.2665 13.4982L13.8488 12.8753C13.7807 12.7739 13.7937 12.6417 13.88 12.5554L14.844 11.5914C14.9304 11.5051 15.0625 11.4922 15.164 11.5602L15.7868 11.9779L17.0656 11.4481L17.2106 10.7124C17.2342 10.5926 17.3368 10.5083 17.459 10.5083H18.8222C18.9443 10.5083 19.047 10.5926 19.0706 10.7124L19.2156 11.4481L20.4944 11.9779L20.4944 11.9779Z" fill="#F9AC00"/>
<path id="Path_9" fill-rule="evenodd" clip-rule="evenodd" d="M20.4944 11.9777L20.9463 11.6746L21.9742 12.7024L21.4406 13.4981L21.9704 14.7769L22.9102 14.9622V16.7417L21.9704 16.927L21.4406 18.2057L21.9742 19.0014L20.9464 20.0292L20.0291 19.4141L18.6988 19.9653L18.4561 21.1957H17.4589C17.3368 21.1957 17.2342 21.1114 17.2106 20.9915L17.0655 20.2559L15.3108 19.529L14.682 19.9507L13.88 19.1486C13.7937 19.0622 13.7807 18.9301 13.8488 18.8287L14.2665 18.2058L13.7367 16.9271L13.001 16.7821C12.8812 16.7584 12.7969 16.6558 12.7969 16.5337V15.1704C12.7969 15.0483 12.8812 14.9457 13.001 14.922L13.7367 14.777L14.2665 13.4983L13.8488 12.8754C13.7807 12.774 13.7936 12.6418 13.88 12.5554L14.682 11.7534L15.3108 12.1751L15.7868 11.9779L17.0655 11.4481L17.2106 10.7125C17.2342 10.5926 17.3368 10.5083 17.4589 10.5083H18.4561L18.6988 11.7387L20.0291 12.2899L20.4944 11.9779L20.4944 11.9777Z" fill="#FCDB35"/>
<ellipse id="Oval_3" cx="17.7912" cy="15.8522" rx="3.12712" ry="3.12712" fill="#F9AC00"/>
<ellipse id="Oval_4" cx="18.1281" cy="15.8557" rx="3.12616" ry="3.12616" fill="white"/>
<path id="Path_10" fill-rule="evenodd" clip-rule="evenodd" d="M18.14 16.1617C19.2589 16.1617 20.1863 16.9806 20.3561 18.0518C19.7907 18.6221 19.0067 18.9755 18.14 18.9755C17.2733 18.9755 16.4893 18.6221 15.9238 18.0517C16.0937 16.9806 17.0211 16.1616 18.1399 16.1616L18.14 16.1617Z" fill="#2A92FA"/>
<path id="Path_11" fill-rule="evenodd" clip-rule="evenodd" d="M19.9034 18.4299C19.4017 18.7742 18.7944 18.9757 18.14 18.9757C17.2734 18.9757 16.4893 18.6224 15.9238 18.052C16.0451 17.2868 16.5531 16.6504 17.2412 16.3493C17.3167 16.3369 17.3919 16.3274 17.4663 16.3204C19.1396 16.1667 19.7962 17.4869 19.9034 18.4299H19.9034Z" fill="#4EB1FC"/>
<ellipse id="Oval_5" cx="18.137" cy="15.0862" rx="1.06864" ry="1.06863" fill="#D9C5BF"/>
<path id="Path_12" fill-rule="evenodd" clip-rule="evenodd" d="M17.8716 16.1198C17.4118 16.0004 17.0723 15.5825 17.0723 15.0853C17.0723 14.5881 17.4118 14.1702 17.8716 14.0508C18.3315 14.1702 18.671 14.5881 18.671 15.0853C18.671 15.5825 18.3315 16.0004 17.8716 16.1198V16.1198Z" fill="#E6D6D1"/>
<path id="Path_13" fill-rule="evenodd" clip-rule="evenodd" d="M5.44336 10.0972C6.5483 10.0972 7.45547 10.9433 7.55273 12.0229V12.3734H3.33398V12.0229C3.43125 10.9433 4.33842 10.0972 5.44336 10.0972V10.0972Z" fill="#2A92FA"/>
<path id="Path_14" fill-rule="evenodd" clip-rule="evenodd" d="M6.98053 12.3736H3.33398V12.0231C3.42272 11.0383 4.18538 10.2479 5.15728 10.1167C6.12919 10.2479 6.89184 11.0383 6.98058 12.0231V12.3736H6.98053Z" fill="#4EB1FC"/>
<ellipse id="Oval_6" cx="5.44434" cy="9.08155" rx="1.0088" ry="1.0088" fill="#D9C5BF"/>
<path id="Path_15" fill-rule="evenodd" clip-rule="evenodd" d="M5.16619 10.0516C4.74431 9.93089 4.43555 9.54239 4.43555 9.08175C4.43555 8.62111 4.74431 8.23257 5.16619 8.11182C5.58806 8.23257 5.89683 8.62107 5.89683 9.08175C5.89683 9.54244 5.58802 9.93094 5.16619 10.0516V10.0516Z" fill="#E6D6D1"/>
</g>
</svg>
