<svg width="23" height="24" viewBox="0 0 23 24" fill="none" xmlns="http://www.w3.org/2000/svg">
<g id="Frame">
<g id="Group">
<path id="Path" fill-rule="evenodd" clip-rule="evenodd" d="M17.0562 2.28171C18.2052 3.43077 18.2052 5.29377 17.0562 6.44287C16.4271 7.07191 15.5841 7.35663 14.7615 7.29688C14.6266 7.64781 14.002 8.47222 13.361 8.61089C13.6516 8.04443 13.8117 7.51067 13.7594 7.04222C13.4461 6.90009 13.1526 6.70046 12.895 6.44287C11.7459 5.29382 11.7459 3.43077 12.895 2.28171C14.0441 1.13266 15.9071 1.13266 17.0562 2.28171L17.0562 2.28171Z" fill="#F23353"/>
<path id="Path_2" fill-rule="evenodd" clip-rule="evenodd" d="M13.6023 8.0643C13.7339 7.70079 13.7945 7.35687 13.7594 7.04237C13.4461 6.90024 13.1526 6.7006 12.895 6.44302C11.7459 5.29397 11.7459 3.43092 12.895 2.28186C13.3907 1.7862 14.0192 1.50454 14.666 1.43652C15.3127 1.50458 15.9412 1.7862 16.4369 2.28186C17.586 3.43092 17.586 5.29392 16.4369 6.44302C15.8079 7.07206 14.9649 7.35678 14.1422 7.29703C14.0722 7.47923 13.8702 7.78906 13.6023 8.0643H13.6023Z" fill="#FF5471"/>
<path id="Path_3" fill-rule="evenodd" clip-rule="evenodd" d="M21.5109 12.3226C22.7828 13.5945 22.7828 15.6566 21.5109 16.9284C20.8147 17.6247 19.8816 17.9399 18.971 17.8737C18.8218 18.2622 18.1304 19.1747 17.4209 19.3282C17.7426 18.7012 17.9197 18.1104 17.8619 17.5918C17.5151 17.4345 17.1902 17.2136 16.9051 16.9284C15.6332 15.6566 15.6332 13.5944 16.9051 12.3226C18.1769 11.0507 20.239 11.0507 21.5109 12.3226L21.5109 12.3226Z" fill="#FDC72E"/>
<path id="Path_4" fill-rule="evenodd" clip-rule="evenodd" d="M17.688 18.7229C17.8336 18.3205 17.9007 17.9398 17.8619 17.5917C17.5151 17.4344 17.1902 17.2134 16.9051 16.9283C15.6332 15.6565 15.6332 13.5943 16.9051 12.3224C17.4537 11.7738 18.1494 11.4621 18.8653 11.3867C19.5811 11.4621 20.2769 11.7738 20.8255 12.3224C22.0974 13.5943 22.0974 15.6565 20.8255 16.9283C20.1293 17.6245 19.1962 17.9397 18.2856 17.8736C18.2081 18.0752 17.9844 18.4182 17.688 18.7228L17.688 18.7229Z" fill="#FCDB35"/>
<path id="Path_5" fill-rule="evenodd" clip-rule="evenodd" d="M1.94889 14.7763L6.96069 16.3604L11.9725 14.7763C12.4677 14.6198 12.7906 14.179 12.7906 13.6597V10.1289C12.7906 9.2412 12.1603 8.49833 11.2845 8.35373L6.96069 7.63965L2.63691 8.35373C1.76102 8.49837 1.13086 9.2412 1.13086 10.1289V13.6597C1.13086 14.1789 1.45385 14.6197 1.94889 14.7762L1.94889 14.7763Z" fill="#B6DBFF"/>
<path id="Path_6" fill-rule="evenodd" clip-rule="evenodd" d="M6.38895 7.73412L5.83008 13.3225L6.96094 14.7983L8.09185 13.3225L7.53293 7.73412L6.96094 7.63965L6.38895 7.73412Z" fill="#FF5471"/>
<path id="Path_7" fill-rule="evenodd" clip-rule="evenodd" d="M6.96094 14.7983L8.09185 13.3225L7.53293 7.73412L6.96094 7.63965V14.7983Z" fill="#F23353"/>
<path id="Path_8" fill-rule="evenodd" clip-rule="evenodd" d="M2.87218 11.0913H11.0503C11.1965 11.0913 11.3107 11.2135 11.3007 11.3594L10.9791 16.0873C10.9686 16.2412 10.8412 16.3602 10.6869 16.3602H3.23551C3.0812 16.3602 2.95385 16.2412 2.94334 16.0873L2.6217 11.3594C2.61177 11.2135 2.72587 11.0913 2.87214 11.0913H2.87218Z" fill="#5D689E"/>
<path id="Path_9" fill-rule="evenodd" clip-rule="evenodd" d="M2.87218 11.0913H10.4573C10.6035 11.0913 10.7177 11.2135 10.7078 11.3594L10.3861 16.0873C10.3757 16.2412 10.2483 16.3602 10.094 16.3602H3.23551C3.0812 16.3602 2.95385 16.2412 2.94334 16.0873L2.6217 11.3594C2.61177 11.2135 2.72587 11.0913 2.87214 11.0913H2.87218Z" fill="#7986BF"/>
</g>
<path id="Path_10" fill-rule="evenodd" clip-rule="evenodd" d="M0.53711 16.3604H13.3833V17.3872H0.537109L0.53711 16.3604Z" fill="#C86F5C"/>
<path id="Shape" fill-rule="evenodd" clip-rule="evenodd" d="M17.4336 13.7227C17.2599 13.7227 17.1191 13.5819 17.1191 13.4082C17.1191 13.2345 17.2599 13.0938 17.4336 13.0938H18.0757C18.2494 13.0938 18.3902 13.2345 18.3902 13.4082C18.3902 13.5819 18.2494 13.7227 18.0757 13.7227H17.4336ZM19.3672 13.7227C19.1935 13.7227 19.0527 13.5819 19.0527 13.4082C19.0527 13.2345 19.1935 13.0938 19.3672 13.0938H20.981C21.1547 13.0938 21.2955 13.2345 21.2955 13.4082C21.2955 13.5819 21.1547 13.7227 20.981 13.7227H19.3672ZM17.2422 14.957C17.0685 14.957 16.9277 14.8162 16.9277 14.6426C16.9277 14.4689 17.0685 14.3281 17.2422 14.3281H21.1711C21.3448 14.3281 21.4856 14.4689 21.4856 14.6426C21.4856 14.8162 21.3448 14.957 21.1711 14.957H17.2422ZM17.4922 16.1919C17.3185 16.1919 17.1777 16.0511 17.1777 15.8774C17.1777 15.7038 17.3185 15.563 17.4922 15.563H20.9204C21.094 15.563 21.2348 15.7038 21.2348 15.8774C21.2348 16.0511 21.094 16.1919 20.9204 16.1919H17.4922Z" fill="white"/>
<path id="Shape_2" fill-rule="evenodd" clip-rule="evenodd" d="M14.5441 3.59923C14.5218 3.77083 14.3644 3.89185 14.1928 3.86948C14.0212 3.84711 13.9002 3.68979 13.9226 3.51819C13.9575 3.25392 14.0876 3.02306 14.2755 2.85833C14.4639 2.6932 14.7096 2.59424 14.975 2.59424C15.2724 2.59424 15.5728 2.71661 15.7749 2.93686C16.0369 3.22238 16.0969 3.64294 15.9591 4.00034C15.88 4.20541 15.7262 4.36528 15.5835 4.51379C15.5412 4.55786 15.4999 4.60072 15.4692 4.63607C15.4162 4.69712 15.3684 4.76127 15.336 4.83323C15.3064 4.89887 15.2879 4.97743 15.2879 5.07698C15.2879 5.25065 15.1471 5.39143 14.9734 5.39143C14.7998 5.39143 14.659 5.25065 14.659 5.07698C14.659 4.88117 14.6992 4.71805 14.7636 4.57529C14.8251 4.43882 14.9067 4.32759 14.9951 4.2258C15.04 4.1741 15.0851 4.1272 15.1314 4.07895C15.2323 3.97401 15.3409 3.86104 15.3744 3.77434C15.4259 3.64083 15.4126 3.47035 15.3131 3.36186C15.2259 3.26694 15.1021 3.2231 14.9749 3.2231C14.8651 3.2231 14.7644 3.26317 14.6882 3.33001C14.6114 3.39726 14.5583 3.49151 14.544 3.59923L14.5441 3.59923ZM14.6602 5.90283C14.6602 5.72916 14.8009 5.58838 14.9746 5.58838C15.1483 5.58838 15.2891 5.72916 15.2891 5.90283V5.97331C15.2891 6.14698 15.1483 6.28777 14.9746 6.28777C14.8009 6.28777 14.6602 6.14698 14.6602 5.97331V5.90283Z" fill="white"/>
<path id="Path_11" fill-rule="evenodd" clip-rule="evenodd" d="M6.96077 14.5695C7.26619 14.5695 7.51528 14.3204 7.51528 14.015C7.51528 13.7095 7.26614 13.4604 6.96077 13.4604C6.65539 13.4604 6.40625 13.7095 6.40625 14.015C6.40625 14.3204 6.65534 14.5695 6.96077 14.5695V14.5695Z" fill="#FDC72E"/>
<path id="Path_12" fill-rule="evenodd" clip-rule="evenodd" d="M6.80412 14.547C6.57417 14.4794 6.40625 14.2668 6.40625 14.015C6.40625 13.7631 6.57417 13.5505 6.80412 13.4829C7.03408 13.5505 7.202 13.7631 7.202 14.015C7.202 14.2668 7.03408 14.4794 6.80412 14.547V14.547Z" fill="#FCDB35"/>
<path id="Path_13" fill-rule="evenodd" clip-rule="evenodd" d="M11.8613 18.2803C14.2615 18.2803 16.2321 20.1182 16.4434 22.4633V23.4434H7.2793V22.4633C7.49056 20.1182 9.46115 18.2803 11.8613 18.2803H11.8613Z" fill="#4EB1FC"/>
<path id="Path_14" fill-rule="evenodd" clip-rule="evenodd" d="M15.2164 23.4435H7.2793V22.4634C7.47228 20.3216 9.13286 18.6031 11.2478 18.3213C13.3628 18.6031 15.0234 20.3216 15.2164 22.4634V23.4435H15.2164Z" fill="#85CAFF"/>
<circle id="Oval" cx="11.8666" cy="15.9569" r="2.30801" fill="#FDB0A0"/>
<path id="Path_15" fill-rule="evenodd" clip-rule="evenodd" d="M11.3196 18.2011C10.3071 17.9573 9.55469 17.0458 9.55469 15.9585C9.55469 14.8712 10.307 13.9596 11.3196 13.7158C12.3322 13.9596 13.0846 14.8711 13.0846 15.9585C13.0846 17.0459 12.3322 17.9573 11.3196 18.2011V18.2011Z" fill="#FFCEC0"/>
<path id="Path_16" fill-rule="evenodd" clip-rule="evenodd" d="M6.95704 7.50238C4.215 7.32454 3.49086 1.88477 6.95704 1.88477C10.4232 1.88477 9.69907 7.32454 6.95704 7.50238V7.50238Z" fill="#FDB0A0"/>
<path id="Path_17" fill-rule="evenodd" clip-rule="evenodd" d="M6.70451 7.47006C4.38654 7.02866 3.71042 2.7118 6.19154 1.98779C9.28666 2.07656 8.90729 6.61663 6.70451 7.47006V7.47006Z" fill="#FFCEC0"/>
</g>
</svg>
